<?xml version="1.0" encoding="utf-8"?>
<!-- Generator: Adobe Illustrator 24.2.1, SVG Export Plug-In . SVG Version: 6.00 Build 0)  -->
<svg version="1.1" id="Слой_1" xmlns="http://www.w3.org/2000/svg" xmlns:xlink="http://www.w3.org/1999/xlink" x="0px" y="0px"
	 viewBox="0 0 400 400" style="enable-background:new 0 0 400 400;" xml:space="preserve">
<style type="text/css">
	.st0{fill:#D7D7D7;stroke:#8E8E8E;stroke-width:1.0699;stroke-miterlimit:10;}
	.st1{fill:#F1B965;}
	.st2{opacity:0.4;fill:#575756;stroke:#1D1D1B;stroke-width:0.6404;stroke-miterlimit:10;enable-background:new    ;}
	.st3{fill:#D36D25;stroke:#87683E;stroke-width:1.0699;stroke-miterlimit:10;}
	.st4{fill:#1D1D1B;}
	.st5{fill:#606060;}
	.st6{fill:none;stroke:#777777;stroke-width:0.5695;stroke-miterlimit:10;}
	.st7{fill:#A55839;}
	.st8{fill:#BC6446;}
	.st9{fill:none;stroke:#000000;stroke-width:0.5349;stroke-miterlimit:10;}
	.st10{opacity:0.41;fill:none;stroke:#000000;stroke-width:1.0699;stroke-miterlimit:10;enable-background:new    ;}
	.st11{fill:#AD5A23;stroke:#87683E;stroke-width:0.7299;stroke-miterlimit:10;}
	.st12{fill:#D36D25;stroke:#87683E;stroke-width:1.1075;stroke-miterlimit:10;}
	.st13{fill:#AD5A23;stroke:#87683E;stroke-width:0.569;stroke-miterlimit:10;}
	.st14{fill:#D36D25;stroke:#87683E;stroke-width:0.7114;stroke-miterlimit:10;}
	.st15{fill:#D36D25;stroke:#87683E;stroke-width:0.7002;stroke-miterlimit:10;}
	.st16{fill:#A8A8A8;stroke:#87683E;stroke-width:0.5729;stroke-miterlimit:10;}
	.st17{fill:#C6C6C6;stroke:#87683E;stroke-width:0.2864;stroke-miterlimit:10;}
	.st18{fill:#D9D9D9;stroke:#87683E;stroke-width:1.1458;stroke-miterlimit:10;}
	.st19{fill:none;stroke:#87683E;stroke-width:0.2961;stroke-miterlimit:10;}
	.st20{fill:#D36D25;stroke:#87683E;stroke-width:0.6504;stroke-miterlimit:10;}
	.st21{fill:#AF571C;stroke:#87683E;stroke-width:0.6636;stroke-miterlimit:10;}
	.st22{fill:#D36D25;stroke:#87683E;stroke-width:1.007;stroke-miterlimit:10;}
	.st23{fill:#D36D25;stroke:#87683E;stroke-width:0.5173;stroke-miterlimit:10;}
	.st24{fill:#D36D25;stroke:#87683E;stroke-width:0.6467;stroke-miterlimit:10;}
	.st25{fill:#D36D25;stroke:#87683E;stroke-width:0.6366;stroke-miterlimit:10;}
	.st26{fill:#B2B2B2;stroke:#87683E;stroke-width:0.2864;stroke-miterlimit:10;}
	.st27{fill:#C6C6C6;stroke:#87683E;stroke-width:0.2971;stroke-miterlimit:10;}
	.st28{fill:none;stroke:#87683E;stroke-width:0.2864;stroke-miterlimit:10;}
	.st29{fill:#C46526;stroke:#87683E;stroke-width:0.5912;stroke-miterlimit:10;}
	.st30{fill:none;stroke:#000000;stroke-width:1.0699;stroke-miterlimit:10;}
	.st31{fill:none;stroke:#000000;stroke-width:0.5349;stroke-miterlimit:10;stroke-dasharray:13.7848,13.7848;}
	.st32{fill:none;stroke:#000000;stroke-width:0.5349;stroke-miterlimit:10;stroke-dasharray:12.8384;}
	.st33{fill:none;stroke:#000000;stroke-width:1.0699;stroke-linecap:round;stroke-miterlimit:10;}
</style>
<g>
	<g>
		<rect x="27.6" y="373.6" class="st0" width="343.2" height="10.4"/>
		<path class="st0" d="M369.8,374.4v8.6H28.5v-8.6H369.8 M371.6,372.6H26.8v12.2h344.9V372.6L371.6,372.6z"/>
	</g>
	<g>
		<g>
			<g>
				<path id="SVGID_2_" class="st1" d="M19,183.6c21.8-23.1,36-43.7,45.1-58.4c14.7-23.7,16.2-32.6,30.9-46.4
					c14.9-14.1,34.5-24.9,45.6-31.1c13.4-7.5,13.8-6.3,25.6-13.3c18.7-11.2,22.8-17.2,32.9-17.6c4.3-0.2,7.9,0.7,25.2,10.2
					c21.6,11.8,37.4,22.1,38.5,22.8c24.9,16.3,37.2,24.4,37.9,24.9c25.4,21.1,41,47.2,46.6,56.7c11,18.4,10.6,23.9,19.2,30.2
					c0,0,8.9,6.5,13.1,17.5c0.1,0.4,0.5,1.4,0.1,2.2c-0.6,1.1-2.5,1.3-3.2,1.3c-0.4,0.1-0.9,0-1.1,0c0,63.3,0,126.7,0,190
					c-117.3-0.1-234.7-0.3-352.1-0.4c-0.5-114.6-0.8-186.8-0.5-188.6c0-0.1,0.2-0.7-0.1-1.1C22.3,182.1,20.4,182.8,19,183.6z"/>
			</g>
		</g>
	</g>
	<rect x="369" y="182.6" class="st2" width="6.2" height="190"/>
	<rect x="23.6" y="182.6" class="st2" width="6.2" height="190"/>
	<g>
		<rect x="73.7" y="223.6" class="st3" width="60.1" height="146.1"/>
		<path class="st3" d="M132.8,224.5v144.4H74.5V224.5H132.8 M134.5,222.8h-1.7H74.5h-1.7v1.7v144.4v1.7h1.7h58.3h1.7v-1.7V224.5
			L134.5,222.8L134.5,222.8z"/>
	</g>
	<rect x="72.7" y="369.8" class="st4" width="62.1" height="1.6"/>
	<g>
		<g>
			<path class="st4" d="M78.8,299.8c1.8,0,1.8-2.9,0-2.9C77,296.9,77,299.8,78.8,299.8L78.8,299.8z"/>
		</g>
	</g>
	<g>
		<g>
			<path class="st5" d="M80,297.8c-0.1-0.1-0.1-0.3-0.1-0.4C79.9,297.5,79.9,297.6,80,297.8c-0.1-0.2-0.1-0.4,0-0.6
				c0,0.1,0,0.2-0.1,0.4c0-0.2,0.1-0.3,0.1-0.5c0,0.1-0.1,0.2-0.1,0.3c0.1-0.2,0.2-0.3,0.3-0.4c-0.1,0.1-0.1,0.2-0.2,0.3
				c0.1-0.1,0.2-0.2,0.3-0.3c-0.1,0.1-0.2,0.1-0.3,0.2c0.1-0.1,0.2-0.2,0.4-0.2c-0.1,0-0.2,0.1-0.3,0.1c0.2-0.1,0.3-0.1,0.5-0.1
				c-0.1,0-0.2,0-0.3,0c0.2,0,0.3,0,0.5,0c-0.1,0-0.2,0-0.3,0c0.2,0,0.4,0.1,0.5,0.1c-0.1,0-0.2-0.1-0.3-0.1
				c0.2,0.1,0.3,0.1,0.4,0.2c-0.1-0.1-0.2-0.1-0.3-0.2l0.1,0.1c0.3,0.2,0.6,0.4,1,0.4c0.3,0,0.8-0.1,1-0.4c0.2-0.3,0.4-0.6,0.4-1
				c0-0.4-0.1-0.7-0.4-1c-0.9-0.9-2.1-1.2-3.3-0.9c-1.2,0.3-2.1,1.3-2.4,2.5c-0.1,0.6-0.2,1.3,0.1,1.9c0.1,0.3,0.3,0.6,0.6,0.9
				c0.3,0.2,0.8,0.2,1.1,0.1c0.3-0.1,0.6-0.3,0.9-0.6C80,298.5,80.1,298.1,80,297.8L80,297.8z"/>
		</g>
	</g>
	<ellipse class="st6" cx="78.8" cy="302.8" rx="1.3" ry="1.3"/>
	<g>
		<path class="st7" d="M301.2,67.3C266.7,49.7,232,32.1,197.5,14.6c0-3.4,0-6.8,0-10.2c36.5,18.7,73,37.4,109.5,56
			C305.2,62.7,303.2,65,301.2,67.3z"/>
		<path class="st7" d="M392.1,215.1c-30.3-49.2-60.6-98.5-90.9-147.7c1.9-2.3,3.9-4.6,5.8-6.9c30.9,50.2,61.7,100.2,92.5,150.4
			C397.1,212.2,394.6,213.7,392.1,215.1z"/>
		<path class="st8" d="M294.3,73.6c-32.3-16.3-64.6-32.8-96.8-49.1c0-3.3,0-6.6,0-9.9c34.5,17.6,69.2,35.2,103.7,52.8
			C298.9,69.4,296.7,71.5,294.3,73.6z"/>
		<path class="st8" d="M384.4,219.6c-30-48.7-60.1-97.3-90.1-146c2.3-2.1,4.6-4.2,6.9-6.3c30.3,49.2,60.6,98.5,90.9,147.7
			C389.6,216.6,387,218.1,384.4,219.6z"/>
		<line class="st9" x1="197.5" y1="24.5" x2="294.3" y2="73.6"/>
		<line class="st9" x1="384.4" y1="219.6" x2="294.3" y2="73.6"/>
	</g>
	<g>
		<path class="st7" d="M94.8,67.4c16.5-9.2,33.6-18.4,51.4-27.4c17.5-9,34.5-17.4,51.4-25.3c0-3.4,0-6.8,0-10.2
			c-17.8,8.4-35.9,17.4-54.4,27c-18.8,9.7-36.8,19.4-54.2,29.1C90.9,62.8,92.8,65.1,94.8,67.4z"/>
		<path class="st7" d="M6.9,217c29.4-49.8,58.6-99.7,87.9-149.5c-1.9-2.3-4-4.5-5.9-6.8C59.2,111.4,29.3,162.1-0.5,212.8
			C1.9,214.2,4.5,215.6,6.9,217z"/>
		<path class="st8" d="M101.8,73.4c15.3-8.5,31.3-17.1,47.9-25.5c16.2-8.3,32.2-16.1,47.8-23.5c0-3.3,0-6.5,0-9.8
			c-16.7,7.9-33.9,16.3-51.4,25.3C128.4,49,111.4,58.2,95,67.4C97.1,69.4,99.5,71.5,101.8,73.4z"/>
		<path class="st8" d="M14.8,221.3c29.1-49.3,58-98.5,87.1-147.8c-2.3-2.1-4.7-4.1-7-6.2c-29.4,49.8-58.6,99.7-87.9,149.5
			C9.5,218.4,12.1,219.9,14.8,221.3z"/>
		<path class="st9" d="M197.5,24.5c-31.8,16.3-63.8,32.7-95.7,49"/>
		<line class="st9" x1="14.8" y1="221.3" x2="101.8" y2="73.4"/>
	</g>
	<line class="st10" x1="30.1" y1="194.6" x2="368.6" y2="194.6"/>
	<g id="окно1_7_">
		<rect x="131.4" y="168.4" class="st11" width="66.5" height="2.3"/>
		<rect x="132.2" y="171" class="st12" width="64.9" height="5.9"/>
		<rect x="132.2" y="92.2" class="st13" width="64.9" height="1.5"/>
		<rect x="140.5" y="98.4" class="st14" width="48.3" height="70.2"/>
		<rect x="134.1" y="93.8" class="st14" width="6.4" height="75.9"/>
		<rect x="188.8" y="93.8" class="st14" width="6.4" height="75.9"/>
		<rect x="140.5" y="93.8" class="st15" width="48.3" height="4.6"/>
		<rect x="142.2" y="101.1" class="st16" width="44.9" height="64.7"/>
		<rect x="143.3" y="101.8" class="st17" width="42.8" height="62.8"/>
		<rect x="143.3" y="131.8" class="st18" width="42.8" height="2.2"/>
		<rect x="163.8" y="101.8" class="st18" width="1.9" height="62.8"/>
		<rect x="143.3" y="101.8" class="st19" width="42.8" height="62.8"/>
		<rect x="130.8" y="89.7" class="st20" width="67.8" height="1.9"/>
	</g>
	<g id="окно1_3_">
		<rect x="200.1" y="168.4" class="st11" width="66.5" height="2.3"/>
		<rect x="200.8" y="171" class="st12" width="64.9" height="5.9"/>
		<rect x="200.8" y="92.2" class="st13" width="64.9" height="1.5"/>
		<rect x="209.3" y="98.4" class="st14" width="48.3" height="70.2"/>
		<rect x="202.9" y="93.8" class="st14" width="6.4" height="75.9"/>
		<rect x="257.4" y="93.8" class="st14" width="6.4" height="75.9"/>
		<rect x="209.3" y="93.8" class="st15" width="48.3" height="4.6"/>
		<rect x="210.9" y="101.1" class="st16" width="44.9" height="64.7"/>
		<rect x="212" y="101.8" class="st17" width="42.8" height="62.8"/>
		<rect x="212" y="131.8" class="st18" width="42.8" height="2.2"/>
		<rect x="232.5" y="101.8" class="st18" width="1.9" height="62.8"/>
		<rect x="212" y="101.8" class="st19" width="42.8" height="62.8"/>
		<rect x="199.5" y="89.7" class="st20" width="67.8" height="1.9"/>
	</g>
	<g id="окно1_2_">
		<rect x="249.6" y="319.8" class="st21" width="55" height="2.3"/>
		<rect x="250.3" y="322.1" class="st22" width="53.6" height="5.9"/>
		<rect x="250.3" y="243.2" class="st23" width="53.6" height="1.5"/>
		<rect x="257.2" y="249.6" class="st24" width="39.9" height="70.2"/>
		<rect x="251.9" y="245" class="st24" width="5.3" height="75.9"/>
		<rect x="297" y="245" class="st24" width="5.3" height="75.9"/>
		<rect x="257.2" y="245" class="st25" width="39.9" height="4.6"/>
		<rect x="258.5" y="252.3" class="st26" width="37.1" height="64.7"/>
		<rect x="259.4" y="252.9" class="st27" width="35.5" height="63"/>
		<rect x="275.9" y="254.4" class="st18" width="2.7" height="60.3"/>
		<rect x="260" y="253.8" class="st28" width="34.2" height="60.7"/>
		<rect x="249.2" y="240.9" class="st29" width="56.1" height="1.9"/>
	</g>
	<line class="st9" x1="30.1" y1="194.6" x2="30.1" y2="215.1"/>
	<line class="st9" x1="368.6" y1="194.6" x2="368.6" y2="215.1"/>
	<g>
		<g>
			<line class="st30" x1="36.5" y1="209.3" x2="175.1" y2="209.3"/>
			<g>
				<path d="M30.1,209.3c3,1.2,6.9,3.1,9.1,5.1l-1.8-5.1l1.8-5.1C37,206.2,33.1,208.1,30.1,209.3z"/>
			</g>
		</g>
	</g>
	<g>
		<g>
			<line class="st30" x1="223.7" y1="209.3" x2="362.2" y2="209.3"/>
			<g>
				<path d="M368.6,209.3c-3,1.2-6.9,3.1-9.1,5.1l1.8-5.1l-1.8-5.1C361.8,206.2,365.6,208.1,368.6,209.3z"/>
			</g>
		</g>
	</g>
	<g>
		<path d="M194.8,201.8c1.2-0.2,2.9-0.4,4.8-0.4c2.6,0,4.3,0.4,5.6,1.5c1.1,0.7,1.7,1.9,1.7,3.5c0,1.9-1.3,3.6-3.4,4.4v0.1
			c1.9,0.4,4.2,2,4.2,5c0,1.7-0.6,3.1-1.7,4.1c-1.4,1.3-3.6,1.9-7,1.9c-1.8,0-3.2-0.1-4.1-0.2v-19.9H194.8z M197.4,210.2h2.4
			c2.8,0,4.4-1.4,4.4-3.4c0-2.3-1.8-3.3-4.4-3.3c-1.2,0-1.9,0.1-2.4,0.2V210.2z M197.4,219.8c0.5,0.1,1.3,0.1,2.1,0.1
			c2.7,0,5.1-1,5.1-3.9c0-2.8-2.4-3.8-5.3-3.8h-2.1v7.7H197.4z"/>
	</g>
	<g>
		<path d="M271,192.9c-1,0.4-2.9,1-5.4,1c-5.7,0-10-3.6-10-10.1c0-6.3,4.3-10.6,10.6-10.6c2.6,0,4.1,0.5,4.8,0.9l-0.6,2.1
			c-1-0.4-2.4-0.9-4.1-0.9c-4.7,0-7.9,3-7.9,8.3c0,4.9,2.9,8.1,7.8,8.1c1.6,0,3.2-0.3,4.3-0.9L271,192.9z"/>
	</g>
	<g>
		<path d="M114.6,123.3v8.4h9.8v-8.4h2.7v20.2h-2.7v-9.4h-9.8v9.4H112v-20.2H114.6z"/>
	</g>
	<g>
		<path d="M56.4,40.6c1.6-0.2,3.4-0.4,5.6-0.4c3.8,0,6.4,0.9,8.2,2.6c1.8,1.6,2.9,3.9,2.9,7.3s-1.1,6-2.9,7.8
			c-1.9,1.9-5,2.9-8.9,2.9c-1.8,0-3.4-0.1-4.7-0.2V40.6H56.4z M59,58.4c0.6,0.1,1.6,0.1,2.7,0.1c5.6,0,8.6-3.1,8.6-8.5
			c0-4.8-2.7-7.8-8.2-7.8c-1.4,0-2.4,0.1-3.1,0.3V58.4z"/>
	</g>
	<g>
		<g>
			<line class="st9" x1="101.8" y1="73.4" x2="108.3" y2="73.4"/>
			<line class="st31" x1="122.1" y1="73.4" x2="281" y2="73.4"/>
			<line class="st9" x1="287.9" y1="73.4" x2="294.3" y2="73.4"/>
		</g>
	</g>
	<line class="st32" x1="101.8" y1="194.6" x2="101.8" y2="73.4"/>
	<line class="st32" x1="294.3" y1="73.6" x2="294.3" y2="194.7"/>
	<g>
		<g>
			<line class="st30" x1="125.1" y1="79.8" x2="125.1" y2="117"/>
			<g>
				<path d="M125.1,73.4c-1.2,3-3.1,6.8-5.1,9.1l5.1-1.8l5.1,1.8C128.2,80.3,126.3,76.4,125.1,73.4z"/>
			</g>
		</g>
	</g>
	<g>
		<g>
			<line class="st30" x1="125.1" y1="149.1" x2="125.1" y2="188.3"/>
			<g>
				<path d="M125.1,194.7c-1.2-3-3.1-6.8-5.1-9.1l5.1,1.8l5.1-1.8C128.2,187.9,126.3,191.6,125.1,194.7z"/>
			</g>
		</g>
	</g>
	<g>
		<g>
			<line class="st30" x1="108.3" y1="184.7" x2="246" y2="184.7"/>
			<g>
				<path d="M101.8,184.7c3,1.2,6.9,3.1,9.1,5.1l-1.8-5.1l1.8-5.1C108.7,181.6,104.8,183.5,101.8,184.7z"/>
			</g>
		</g>
	</g>
	<g>
		<g>
			<line class="st30" x1="287.8" y1="184.7" x2="275.9" y2="184.7"/>
			<g>
				<path d="M294.2,184.7c-3-1.2-6.9-3.1-9.1-5.1l1.8,5.1l-1.8,5.1C287.4,187.7,291.2,185.7,294.2,184.7z"/>
			</g>
		</g>
	</g>
	<line class="st33" x1="197.5" y1="24.5" x2="63.9" y2="24.5"/>
	<line class="st33" x1="101.8" y1="73.4" x2="63.9" y2="73.6"/>
	<g>
		<g>
			<line class="st33" x1="63.9" y1="24.5" x2="63.9" y2="29.5"/>
			<g>
				<path d="M63.9,35.9c-1.2-3-3.1-6.8-5.1-9.1l5.1,1.8l5.1-1.8C66.9,29,64.9,32.9,63.9,35.9z"/>
			</g>
		</g>
	</g>
	<g>
		<g>
			<line class="st33" x1="63.9" y1="73.6" x2="63.9" y2="69.8"/>
			<g>
				<path d="M63.9,63.4c1.2,3,3.1,6.8,5.1,9.1l-5.1-1.8l-5.1,1.8C60.8,70.1,62.7,66.4,63.9,63.4z"/>
			</g>
		</g>
	</g>
</g>
</svg>
