<?xml version="1.0" encoding="utf-8"?>
<!-- Generator: Adobe Illustrator 24.2.1, SVG Export Plug-In . SVG Version: 6.00 Build 0)  -->
<svg version="1.1" id="Слой_1" xmlns="http://www.w3.org/2000/svg" xmlns:xlink="http://www.w3.org/1999/xlink" x="0px" y="0px"
	 viewBox="0 0 400 400" style="enable-background:new 0 0 400 400;" xml:space="preserve">
<style type="text/css">
	.st0{fill:#9C9B9B;}
	.st1{fill:#575756;}
	.st2{fill:#D8D8D8;}
	.st3{opacity:0.4;fill:#575756;stroke:#1D1D1B;stroke-width:0.6407;stroke-miterlimit:10;enable-background:new    ;}
	.st4{fill:#9C9B9B;stroke:#1D1D1B;stroke-width:0.7218;stroke-miterlimit:10;}
	.st5{fill:#B1B1B1;stroke:#1D1D1B;stroke-width:1.095;stroke-miterlimit:10;}
	.st6{fill:#B1B1B1;stroke:#1D1D1B;stroke-width:0.5627;stroke-miterlimit:10;}
	.st7{fill:#868686;stroke:#1D1D1B;stroke-width:0.7034;stroke-miterlimit:10;}
	.st8{fill:#6F6F6E;stroke:#1D1D1B;stroke-width:0.7034;stroke-miterlimit:10;}
	.st9{fill:#9C9B9B;stroke:#1D1D1B;stroke-width:0.6923;stroke-miterlimit:10;}
	.st10{fill:#9C9B9B;stroke:#1D1D1B;stroke-width:0.6798;stroke-miterlimit:10;}
	.st11{fill:#9C9B9B;stroke:#1D1D1B;stroke-width:0.6325;stroke-miterlimit:10;}
	.st12{fill:#D9D9D9;}
	.st13{fill:none;stroke:#1D1D1B;stroke-width:0.6325;stroke-miterlimit:10;}
	.st14{fill:#9C9B9B;stroke:#1D1D1B;stroke-width:0.643;stroke-miterlimit:10;}
	.st15{fill:#9C9B9B;stroke:#1D1D1B;stroke-width:0.6562;stroke-miterlimit:10;}
	.st16{fill:#B1B1B1;stroke:#1D1D1B;stroke-width:0.9956;stroke-miterlimit:10;}
	.st17{fill:#B1B1B1;stroke:#1D1D1B;stroke-width:0.5115;stroke-miterlimit:10;}
	.st18{fill:#868686;stroke:#1D1D1B;stroke-width:0.6395;stroke-miterlimit:10;}
	.st19{fill:#6F6F6E;stroke:#1D1D1B;stroke-width:0.6395;stroke-miterlimit:10;}
	.st20{fill:#9C9B9B;stroke:#1D1D1B;stroke-width:0.6294;stroke-miterlimit:10;}
	.st21{fill:#9C9B9B;stroke:#1D1D1B;stroke-width:0.6181;stroke-miterlimit:10;}
	.st22{fill:#9C9B9B;stroke:#1D1D1B;stroke-width:0.575;stroke-miterlimit:10;}
	.st23{fill:none;stroke:#1D1D1B;stroke-width:0.575;stroke-miterlimit:10;}
	.st24{fill:#9C9B9B;stroke:#1D1D1B;stroke-width:0.5847;stroke-miterlimit:10;}
	.st25{fill:#1D1D1B;}
	.st26{fill:none;stroke:#1D1D1B;stroke-width:0.5698;stroke-miterlimit:10;}
	.st27{fill:#B1B1B1;}
	.st28{fill:none;stroke:#000000;stroke-width:0.5352;stroke-miterlimit:10;}
	.st29{opacity:0.41;fill:none;stroke:#000000;stroke-width:1.0704;stroke-miterlimit:10;enable-background:new    ;}
</style>
<g>
	<g>
		<rect x="28.1" y="374.3" class="st0" width="343.2" height="10.4"/>
		<path class="st1" d="M370.3,375.1v8.7H29v-8.7H370.3 M372.1,373.3H27.2v12.2h344.9V373.3L372.1,373.3z"/>
	</g>
	<g>
		<g>
			<g>
				<path id="SVGID_1_" class="st2" d="M19.2,184c21.8-23.1,36-43.7,45.1-58.4C79,101.8,80.5,92.9,95.2,79.1
					C110.1,65,129.8,54.2,140.8,48c13.4-7.5,13.8-6.3,25.6-13.4c18.7-11.2,22.8-17.2,32.9-17.6c4.3-0.2,7.9,0.7,25.2,10.3
					c21.6,11.9,37.4,22.1,38.5,22.9c24.9,16.3,37.2,24.5,37.9,24.9c25.4,21.2,41,47.2,46.6,56.7c11,18.4,10.6,23.9,19.2,30.2
					c0,0,8.9,6.5,13.1,17.5c0.1,0.4,0.5,1.4,0.1,2.2c-0.6,1.1-2.5,1.3-3.2,1.3c-0.4,0.1-0.9,0-1.1,0c0,63.4,0,126.8,0,190.2
					c-117.3-0.1-234.7-0.3-352.1-0.4c-0.5-114.8-0.8-187-0.5-188.8c0-0.1,0.2-0.7-0.1-1.1C22.4,182.5,20.6,183.2,19.2,184z"/>
			</g>
		</g>
	</g>
	<rect x="369.4" y="183.1" class="st3" width="6.2" height="190.2"/>
	<rect x="24" y="183.1" class="st3" width="6.2" height="190.2"/>
	<g id="окно1_4_">
		<rect x="132.5" y="169.3" class="st4" width="65.7" height="2.5"/>
		<rect x="133.3" y="171.8" class="st5" width="64.1" height="5.8"/>
		<rect x="133.3" y="93.9" class="st6" width="64.1" height="1.5"/>
		<rect x="141.6" y="100" class="st7" width="47.6" height="69.4"/>
		<rect x="135.2" y="95.4" class="st8" width="6.4" height="75.1"/>
		<rect x="189.3" y="95.4" class="st8" width="6.4" height="75.1"/>
		<rect x="141.6" y="95.4" class="st9" width="47.6" height="4.6"/>
		<rect x="143.2" y="102.7" class="st10" width="44.3" height="64"/>
		<rect x="145.1" y="104.4" class="st11" width="40.9" height="60"/>
		<rect x="145.1" y="133" class="st12" width="40.9" height="2.2"/>
		<rect x="164.5" y="104.6" class="st12" width="1.9" height="59.7"/>
		<rect x="145" y="104.1" class="st13" width="40.9" height="60"/>
		<rect x="131.9" y="91.3" class="st14" width="66.9" height="1.9"/>
	</g>
	<g id="окно1_1_">
		<rect x="250.4" y="318.9" class="st15" width="54.4" height="2.5"/>
		<rect x="251" y="321.3" class="st16" width="53" height="5.8"/>
		<rect x="251" y="243.5" class="st17" width="53" height="1.5"/>
		<rect x="257.9" y="249.5" class="st18" width="39.4" height="69.4"/>
		<rect x="252.5" y="245" class="st19" width="5.3" height="75.1"/>
		<rect x="297.3" y="245" class="st19" width="5.3" height="75.1"/>
		<rect x="257.9" y="245" class="st20" width="39.4" height="4.6"/>
		<rect x="259.2" y="252.3" class="st21" width="36.7" height="64"/>
		<rect x="260.7" y="254" class="st22" width="33.8" height="60"/>
		<rect x="276.2" y="254.2" class="st12" width="2.6" height="59.7"/>
		<rect x="260.7" y="253.6" class="st23" width="33.8" height="60"/>
		<rect x="249.9" y="240.9" class="st24" width="55.3" height="1.9"/>
	</g>
	<g id="окно1_5_">
		<rect x="200.8" y="169.3" class="st4" width="65.7" height="2.5"/>
		<rect x="201.6" y="171.8" class="st5" width="64.1" height="5.8"/>
		<rect x="201.6" y="93.9" class="st6" width="64.1" height="1.5"/>
		<rect x="209.9" y="100" class="st7" width="47.6" height="69.4"/>
		<rect x="203.5" y="95.4" class="st8" width="6.4" height="75.1"/>
		<rect x="257.6" y="95.4" class="st8" width="6.4" height="75.1"/>
		<rect x="209.9" y="95.4" class="st9" width="47.6" height="4.6"/>
		<rect x="211.5" y="102.7" class="st10" width="44.3" height="64"/>
		<rect x="213.4" y="104.4" class="st11" width="40.9" height="60"/>
		<rect x="213.4" y="133" class="st12" width="40.9" height="2.2"/>
		<rect x="232.8" y="104.6" class="st12" width="1.9" height="59.7"/>
		<rect x="213.3" y="104.1" class="st13" width="40.9" height="60"/>
		<rect x="200.2" y="91.3" class="st14" width="67" height="1.9"/>
	</g>
	<g>
		<rect x="74.2" y="224.2" class="st12" width="60.1" height="146.3"/>
		<path class="st25" d="M133.3,225v144.6H75V225H133.3 M135,223.3h-1.7H75h-1.7v1.7v144.6v1.7H75h58.3h1.7v-1.7V225L135,223.3
			L135,223.3z"/>
	</g>
	<rect x="73.1" y="370.5" class="st25" width="62.1" height="1.6"/>
	<g>
		<g>
			<path class="st25" d="M79.2,300.4c1.8,0,1.8-2.9,0-2.9C77.4,297.6,77.4,300.4,79.2,300.4L79.2,300.4z"/>
		</g>
	</g>
	<g>
		<g>
			<path class="st25" d="M80.4,298.4c-0.1-0.1-0.1-0.3-0.1-0.4C80.3,298.1,80.3,298.2,80.4,298.4c-0.1-0.2-0.1-0.4,0-0.6
				c0,0.1,0,0.2-0.1,0.4c0-0.2,0.1-0.3,0.1-0.5c0,0.1-0.1,0.2-0.1,0.3c0.1-0.2,0.2-0.3,0.3-0.4c-0.1,0.1-0.1,0.2-0.2,0.3
				c0.1-0.1,0.2-0.2,0.3-0.3c-0.1,0.1-0.2,0.1-0.3,0.2c0.1-0.1,0.2-0.2,0.4-0.2c-0.1,0-0.2,0.1-0.3,0.1c0.2-0.1,0.3-0.1,0.5-0.1
				c-0.1,0-0.2,0-0.3,0c0.2,0,0.3,0,0.5,0c-0.1,0-0.2,0-0.3,0c0.2,0,0.4,0.1,0.5,0.1c-0.1,0-0.2-0.1-0.3-0.1
				c0.2,0.1,0.3,0.1,0.4,0.2c-0.1-0.1-0.2-0.1-0.3-0.2l0.1,0.1c0.3,0.2,0.6,0.4,1,0.4c0.3,0,0.8-0.1,1-0.4c0.2-0.3,0.4-0.6,0.4-1
				c0-0.4-0.1-0.7-0.4-1c-0.9-0.9-2.1-1.2-3.3-0.9c-1.2,0.3-2.1,1.3-2.4,2.5c-0.1,0.6-0.2,1.3,0.1,1.9c0.1,0.3,0.3,0.6,0.6,0.9
				c0.3,0.2,0.8,0.2,1.1,0.1c0.3-0.1,0.6-0.3,0.9-0.6C80.4,299.2,80.5,298.7,80.4,298.4L80.4,298.4z"/>
		</g>
	</g>
	<ellipse class="st26" cx="79.2" cy="303.4" rx="1.3" ry="1.3"/>
	<g>
		<path class="st0" d="M301.7,67.6C267.1,50.1,232.5,32.5,198,15c0-3.4,0-6.8,0-10.3c36.5,18.7,73,37.4,109.5,56.1
			C305.6,63,303.7,65.4,301.7,67.6z"/>
		<path class="st0" d="M392.6,215.6C362.3,166.4,332,117,301.7,67.7c1.9-2.4,3.9-4.6,5.8-6.9c30.9,50.2,61.7,100.3,92.5,150.5
			C397.5,212.7,395.1,214.2,392.6,215.6z"/>
		<path class="st27" d="M294.8,73.9c-32.3-16.3-64.6-32.8-96.8-49.1c0-3.3,0-6.6,0-9.9c34.5,17.6,69.2,35.3,103.7,52.9
			C299.4,69.8,297.2,71.9,294.8,73.9z"/>
		<path class="st27" d="M384.9,220.1c-30-48.7-60.1-97.4-90.1-146.2c2.3-2.1,4.6-4.2,6.9-6.3c30.3,49.3,60.6,98.6,90.9,147.9
			C390,217.1,387.5,218.6,384.9,220.1z"/>
		<line class="st28" x1="198" y1="24.8" x2="294.8" y2="73.9"/>
		<line class="st28" x1="384.9" y1="220.1" x2="294.8" y2="73.9"/>
	</g>
	<g>
		<path class="st0" d="M95.2,67.7c16.5-9.2,33.6-18.4,51.4-27.5c17.5-9,34.5-17.4,51.4-25.3c0-3.4,0-6.8,0-10.3
			c-17.8,8.4-35.9,17.4-54.4,27c-18.8,9.7-36.8,19.4-54.2,29.2C91.4,63.1,93.3,65.5,95.2,67.7z"/>
		<path class="st0" d="M7.4,217.5C36.8,167.6,66,117.7,95.3,67.8c-1.9-2.4-4-4.5-5.9-6.8C59.6,111.9,29.8,162.6,0,213.4
			C2.4,214.8,4.9,216.1,7.4,217.5z"/>
		<path class="st27" d="M102.3,73.8c15.3-8.5,31.3-17.1,47.9-25.5c16.2-8.3,32.2-16.1,47.8-23.5c0-3.3,0-6.5,0-9.8
			c-16.7,7.9-33.9,16.3-51.4,25.3c-17.8,9.1-34.9,18.3-51.3,27.5C97.6,69.8,99.9,71.9,102.3,73.8z"/>
		<path class="st27" d="M15.2,221.8c29.1-49.4,58-98.6,87.1-148c-2.3-2.1-4.7-4.1-7-6.2C66,117.5,36.8,167.4,7.4,217.3
			C10,218.9,12.5,220.4,15.2,221.8z"/>
		<path class="st28" d="M198,24.8c-31.8,16.3-63.8,32.7-95.7,49"/>
		<line class="st28" x1="15.2" y1="221.8" x2="102.3" y2="73.8"/>
	</g>
	<line class="st29" x1="30.6" y1="195.1" x2="369.1" y2="195.1"/>
</g>
</svg>
