<?xml version="1.0" encoding="utf-8"?>
<!-- Generator: Adobe Illustrator 24.2.1, SVG Export Plug-In . SVG Version: 6.00 Build 0)  -->
<svg version="1.1" id="Слой_1" xmlns="http://www.w3.org/2000/svg" xmlns:xlink="http://www.w3.org/1999/xlink" x="0px" y="0px"
	 viewBox="0 0 400 400" style="enable-background:new 0 0 400 400;" xml:space="preserve">
<style type="text/css">
	.st0{fill:#575756;}
	.st1{fill:#D8D8D8;}
	.st2{fill:#E5E5E5;}
	.st3{fill:#BABABA;}
	.st4{fill:#A0A0A0;}
	.st5{fill:#D1D1D1;}
	.st6{fill:#B2B2B2;}
	.st7{fill:#999999;}
	.st8{fill:#9D9D9C;}
	.st9{fill:#C6C6C6;}
	.st10{fill:#494949;stroke:#494949;stroke-width:0.9974;stroke-miterlimit:10;}
	.st11{fill:none;stroke:#000000;stroke-width:0.9974;stroke-linecap:round;stroke-linejoin:round;stroke-miterlimit:10;}
	.st12{fill:none;stroke:#000000;stroke-width:0.4987;stroke-linecap:round;stroke-linejoin:round;stroke-miterlimit:10;}
	.st13{fill:#FFFFFF;stroke:#FFFFFF;stroke-width:0.4987;stroke-linecap:round;stroke-linejoin:round;stroke-miterlimit:10;}
	.st14{fill:none;stroke:#DADADA;stroke-width:0.748;stroke-linecap:round;stroke-linejoin:round;stroke-miterlimit:10;}
	.st15{fill:none;stroke:#000000;stroke-width:0.748;stroke-linecap:round;stroke-linejoin:round;stroke-miterlimit:10;}
	.st16{fill:#DADADA;}
	.st17{fill:#494949;stroke:#1D1D1B;stroke-width:0.9974;stroke-linecap:round;stroke-linejoin:round;stroke-miterlimit:10;}
	.st18{fill:#EDEDED;}
	.st19{fill:#636363;stroke:#1D1D1B;stroke-width:0.9974;stroke-linecap:round;stroke-linejoin:round;stroke-miterlimit:10;}
	.st20{fill:#3C3C3B;}
	.st21{fill:#DADADA;stroke:#706F6F;stroke-width:0.1496;stroke-miterlimit:10;}
	.st22{fill:#DADADA;stroke:#706F6F;stroke-width:0.1547;stroke-miterlimit:10;}
	.st23{opacity:0.6;fill:none;stroke:#1D1D1B;stroke-width:0.4987;stroke-miterlimit:10;enable-background:new    ;}
	.st24{fill:none;stroke:#DADADA;stroke-width:0.4987;stroke-linecap:round;stroke-linejoin:round;stroke-miterlimit:10;}
	.st25{fill:#9D9D9C;stroke:#575756;stroke-width:0.4842;stroke-linecap:round;stroke-linejoin:round;stroke-miterlimit:10;}
	.st26{fill:#9D9D9C;stroke:#575756;stroke-width:0.4967;stroke-linecap:round;stroke-linejoin:round;stroke-miterlimit:10;}
	.st27{fill:#878787;stroke:#575756;stroke-width:0.4876;stroke-linecap:round;stroke-linejoin:round;stroke-miterlimit:10;}
	.st28{fill:#9D9D9C;stroke:#575756;stroke-width:0.4876;stroke-linecap:round;stroke-linejoin:round;stroke-miterlimit:10;}
	.st29{fill:#B2B2B2;stroke:#575756;stroke-width:0.4876;stroke-linecap:round;stroke-linejoin:round;stroke-miterlimit:10;}
	.st30{fill:none;stroke:#575756;stroke-width:0.1496;stroke-linecap:round;stroke-miterlimit:10;}
	.st31{fill:none;stroke:#575756;stroke-width:0.2494;stroke-linecap:round;stroke-miterlimit:10;}
	.st32{fill:#9D9D9C;stroke:#575756;stroke-width:0.4659;stroke-linecap:round;stroke-linejoin:round;stroke-miterlimit:10;}
	.st33{fill:#DADADA;stroke:#706F6F;stroke-width:0.1861;stroke-miterlimit:10;}
	.st34{fill:#2D2D2D;}
	.st35{fill:#706F6F;}
	.st36{fill:#353535;}
	.st37{fill:#686868;}
	.st38{fill:#878787;}
	.st39{fill:#F6F6F6;}
	.st40{fill:#757575;stroke:#686868;stroke-width:0.467;stroke-miterlimit:10;}
	.st41{fill:#757575;stroke:#686868;stroke-width:0.4007;stroke-miterlimit:10;}
	.st42{fill:#DADADA;stroke:#EDEDED;stroke-width:0.196;stroke-miterlimit:10;}
	.st43{fill:#757575;stroke:#686868;stroke-width:0.4987;stroke-miterlimit:10;}
	.st44{fill:#757575;stroke:#686868;stroke-width:0.4279;stroke-miterlimit:10;}
	.st45{fill:#DADADA;stroke:#EDEDED;stroke-width:0.2093;stroke-miterlimit:10;}
	.st46{fill:#706F6F;stroke:#575756;stroke-width:0.1177;stroke-miterlimit:10;}
	.st47{fill:#878787;stroke:#9D9D9C;stroke-width:0.1075;stroke-miterlimit:10;}
	.st48{fill:#706F6F;stroke:#575756;stroke-width:0.1074;stroke-miterlimit:10;}
	.st49{fill:#878787;stroke:#9D9D9C;stroke-width:9.807765e-02;stroke-miterlimit:10;}
	
		.st50{opacity:0.38;fill:none;stroke:#1D1D1B;stroke-width:0.748;stroke-linecap:round;stroke-miterlimit:10;enable-background:new    ;}
	.st51{fill:#DADADA;stroke:#575756;stroke-width:0.4987;stroke-linecap:round;stroke-miterlimit:10;}
	.st52{fill:none;stroke:#F6F6F6;stroke-width:0.4987;stroke-linecap:round;stroke-miterlimit:10;}
	.st53{fill:none;stroke:#575756;stroke-width:0.4987;stroke-linecap:round;stroke-miterlimit:10;}
	.st54{font-family:'Arial-BoldMT';}
	.st55{font-size:9.0616px;}
</style>
<g>
	<path class="st0" d="M280.8,217.1c-27.8,0.1-56-0.1-56.1-1.4c0-0.1,0.4-0.3,1.1-0.5c6.5-1.7,30.4-2.6,62.7-2.4
		c9,0.3,15.5,2.3,16.1,5.5c0.2,0.9-0.1,2.1-0.9,2.7c-2.3,2-7.2-2-15.5-3.4C285,217.1,282.3,217.1,280.8,217.1z"/>
	<path class="st0" d="M299.8,219.2c-3.7-1.7-7.5-3.4-11.3-5.1c8.3,2,16.5,4,24.8,5.9c-2.6,0.1-5.3,0.2-7.9,0.4
		C303.5,220,301.6,219.6,299.8,219.2z"/>
	<g id="стены">
		<path class="st1" d="M117.8,251h-17.4v-57.3c5.9-0.2,11.7-0.4,17.5-0.6C117.9,212.4,117.8,231.6,117.8,251z"/>
		<path class="st2" d="M170.7,252c-17.6,0-35.2,0-52.8,0.1c0-51.2,0-73.8,0-74v-0.2v-0.2v-0.1v-0.2v-0.2c0.8-0.8,2.1-2.2,3.5-3.9
			c1.3-1.6,1.9-2.6,3.4-4.7c1.6-2.2,2.2-2.9,3.9-5.1c3.9-5.1,4.2-6.2,7.9-11.1c0.1-0.1,4.5-6.7,5.4-6.3c0.1,0,0.2,0.1,0.3,0.2
			c0.5,0.4,0.8,0.8,0.9,0.9c0.7,1,1.7,1.9,2.6,2.8c4.1,4.5,6,6.8,7.5,8.2c0,0,6.6,6.6,11,12c0.1,0.1,0.2,0.3,0.3,0.6
			c0,0.1,0,0.1,0,0.3c0,0,0,0.2,0,0.4c0,0-0.2,11-0.1,11h0.1l0,0v0.1c0,0,0-0.1,0.1-0.1c0,0,0.1,0,0.1-0.1c0,0,0,0,0.1,0
			s0.1-0.1,0.1-0.1c0.1,0,0.1,0.1,0.2,0.1s0-0.1,0.1-0.1c0.1,0,0.2,0.1,0.2,0.1c0.1,0.1,1.6,0.1,5.5-0.2
			C170.7,205.5,170.7,228.8,170.7,252z"/>
		<path class="st3" d="M186.1,256.4c-5.2,0.4-10.3,0.7-15.5,1.1c0-24.8,0-49.6,0-74.3c5.2,1.1,10.3,2.2,15.5,3.3
			C186.1,209.8,186.1,233.1,186.1,256.4z"/>
		<path class="st4" d="M186.1,256.3c-3.4,0.2-6.8,0.4-10.2,0.6c0-14.4,0-28.8,0-43.1c3.4,0.6,6.9,1.3,10.3,1.9
			C186.2,229.3,186.1,242.8,186.1,256.3z"/>
		<path class="st5" d="M225.4,210c14-0.9,28-1.8,42-2.7c0.6-1.7,1.2-4.1,1.6-7.2c0.4-3.7,0.2-6.6-0.6-13.1c-0.7-5.5-1.2-7.9-2.5-16
			c-1.4-8.5-1.4-9.5-2.1-12.5c-1.1-5-2.4-9.1-3.2-11.8c-0.6-1.9-1.3-3.2-1.8-4.2c-0.9-1.6-1.6-2.4-1.4-3.6c0.2-1.2,1.1-1.8,1.1-1.9
			c-0.2-0.2-3.9,2.7-7.5,6.1c-1.2,1.2-2.6,2.4-4,4.1c-0.8,0.9-1.5,1.8-2,2.4c-0.1,0.3-0.2,0.7-0.4,1.1c-0.1,0.2-0.2,0.6-0.4,1.1
			c0,0-0.2,0.6-0.4,1.1c-0.9,2.6-1.7,5.2-1.7,5.2c-1.9,6-2.9,9.1-3.1,9.3c-0.5,0.9-1.5,2.4-1.7,4.5c-0.1,0.6-0.1,1.4-0.1,1.9
			c0,1.4,0.1,1.6,0.1,3.5c0,0,0.1,2,0.1,4.1c0,0.2,0,0.6,0,0.6c0,0.2,0,0.4,0,0.6c0,0.3,0,0.4,0,0.4c-0.1,0.8-5.4,0.7-5.4,0.7
			c-2.7,0-3.9-0.3-5.2,0.5c0,0-0.6,0.3-1.1,0.9C223.1,187.5,225.2,208.5,225.4,210z"/>
		<path class="st6" d="M225.8,215.7c-13.2,0-26.4,0-39.6,0c0-10.6,0-21.1,0-31.7c13.3-0.4,26.5-0.7,39.8-1.1
			C225.9,193.8,225.8,204.8,225.8,215.7z"/>
		<path class="st7" d="M225.8,252.9c-13.2,0-26.5,0-39.7,0c0-12.4,0-24.9,0-37.3c13.3-0.4,26.5-0.9,39.8-1.4
			C225.9,227.2,225.8,240,225.8,252.9z"/>
		<path class="st8" d="M225.9,252.9c-5.2,0-10.5,0-15.8,0c0-19.3,0-38.6,0-57.9c5.3,0.1,10.5,0.1,15.8,0.1
			C225.9,214.3,225.9,233.6,225.9,252.9z"/>
		<rect x="224.7" y="215.7" class="st2" width="58.4" height="46"/>
		<path class="st5" d="M283.1,253.1c7.4-0.4,14.8-0.7,22.2-1.1c-0.1-10.5-0.2-21.1-0.2-31.7c-7.4-1.6-14.6-3.1-22-4.6
			C283.1,228.1,283.1,240.6,283.1,253.1z"/>
	</g>
	<g id="углы_стен">
		<path class="st6" d="M102.2,250.1h-1.8c0-18.8,0-37.6,0-56.3c0.6,0,1.2-0.1,1.8-0.1C102.2,212.5,102.2,231.3,102.2,250.1z"/>
		<path class="st6" d="M118.5,250.1h-0.7c0-21.3,0-42.6,0-63.9c0.2,0,0.5-0.1,0.7-0.1C118.5,207.5,118.5,228.8,118.5,250.1z"/>
		<path class="st6" d="M119.4,251.5h-0.9c0-24.9,0-49.7,0-74.6c0.3-0.3,0.6-0.7,0.9-1C119.4,201.1,119.4,226.3,119.4,251.5z"/>
		<path class="st6" d="M169.6,183c0.4,0,0.7,0.1,1.1,0.1V252h-1.1C169.6,229,169.6,206,169.6,183z"/>
		<rect x="170.7" y="183" class="st4" width="0.8" height="68.9"/>
		<rect x="224.3" y="215.2" class="st6" width="1.6" height="37.8"/>
		<rect x="224.3" y="184.3" class="st6" width="1.6" height="37.8"/>
		<rect x="281.6" y="215.7" class="st6" width="1.6" height="37.6"/>
		<path class="st9" d="M283.2,215.7c0.6,0.1,1.1,0.2,1.6,0.4c0,12.4,0,24.9,0,37.3h-1.6C283.3,240.8,283.3,228.2,283.2,215.7z"/>
		<path class="st9" d="M303.7,220c0.6,0.1,1.1,0.2,1.7,0.4c0,11.5,0,22.9,0,34.4h-1.6C303.7,243.2,303.7,231.6,303.7,220z"/>
	</g>
	<path class="st6" d="M117.8,187.5c-10.3,0.7-20.7,1.4-31,2.1c0,1-0.1,2-0.1,3.1c10.4-0.6,20.7-1.3,31.2-1.9
		C117.8,189.6,117.8,188.6,117.8,187.5z"/>
	<g id="контур_крыши">
		<path class="st10" d="M120.1,158.7c-1.2,1.1-2.6,2.7-3.9,4.1c-1.2,1.2-1.6,1.3-3.3,2.7c-2.4,1.9-3.6,3.3-5.5,5.3
			c-0.7,0.7-3,2.8-7.7,7.1c-6.2,5.7-12,11-12,11l0.4,0.1c1.2,0.4,3.2-0.2,3.2-0.2c0.5-0.1,0.1,0,7-0.4c1.9-0.1,1.8-0.1,2.3-0.1
			c1.8-0.1,2.9-0.1,4.5-0.1c0,0,2.1-0.1,4.5-0.2c5.3-0.2,8-0.4,8.2-1c0.6-1.8-10.3-5.6-9.7-8.8c0.1-0.6,0.7-0.9,1.2-1.4
			c2.6-2.6,3.8-4.8,6-8.1c3.6-5.4,5.4-8.2,8.2-11c2.5-2.6,4-3.5,6.7-6.8c1.9-2.4,2.9-3.6,3.3-4.4c0,0,1.7-3.3,3.6-5.2
			c0.2-0.2,0.4-0.4,0.7-0.4c0.2,0,0.5,0.1,0.7,0.2c0.5,0.2,0.8,0.6,0.9,0.7c0.5,0.5,0.7,1,0.8,1.1c0.7,1.2,3.4,3.1,4.3,3.8
			c2.1,1.6,1.6,2.2,4.5,5.4c1.9,2.1,3.3,3.2,4.9,4.6c2.4,2.1,7.2,6.4,11.2,12c0,0,4.6,6.4,8,10.2c0.4,0.5,1.6,1.7,3.4,2.2
			c1.1,0.3,1.9,0.2,2.6,0.2c2.9-0.1,3.9,0.9,6.6,1.4c2.2,0.4,2.6-0.1,7.8-0.6c2.6-0.2,2.4-0.1,7.9-0.4c1.8-0.1,6.4-0.4,11.8-0.9
			c9.8-0.9,9.3-1.2,11-1c0.2,0.1,2.6-0.1,7.2-0.3c0.1,0,0.2,0,0.3-0.1c0.4-0.2,0.5-0.6,0.5-0.7c0.3-1.1,1.1-2.1,1.4-3.2
			c0.9-3.2,2.2-6.2,3.2-9.4c2.1-6.5,2.4-5,3.9-9.9c0,0,1-3.5,4-9.7c0.1-0.1,0.2-0.4,0.4-0.6c0.6-0.6,1.1-0.6,1.7-1
			c0.5-0.3,0.5-0.5,1.2-1.3c0.4-0.5,0.8-0.8,1.9-1.8c2.1-1.8,3.9-3.8,6-5.4c1-0.7,2.2-1.5,2.2-2.6c0-0.1,0-0.7-0.3-1
			c-0.4-0.2-0.9,0-1.1,0.1c-1.6,0.7-3.5,0.5-5.2,0.9c-3.9,0.9-17.5,2.1-17.5,2.1c-17.6,1.6-29.9,4.1-46.4,5.6
			c-1.2,0.1-3.6,0.3-6.9,0.7c-6.5,0.7-7,0.9-12.8,1.6c-2.1,0.2-4.7,0.5-6.6,0.8c-0.7,0.1-1.6,0.1-2.4,0.3c-0.4,0.1-1.1,0.3-2,0.2
			c0,0-0.1,0-0.3-0.1c-1.5-0.2-2.8-1.1-2.8-1.1c-2.9-1.8-12.4-3.4-14.8-5.7c-0.2-0.1-0.7-0.7-1.2-0.6c-0.6,0.1-0.9,0.9-1.1,1.2
			c-0.1,0.2-1,1.4-2.8,3.6c-2,2.5-2.5,2.2-4.2,4.5c-1.1,1.6-0.7,1.4-1.9,3.1c-1.7,2.4-2.9,3-4.2,5c-0.2,0.2-0.7,1-1.4,1.8
			c-0.4,0.4-0.7,0.8-0.9,0.9C120.7,158.2,120.3,158.5,120.1,158.7z"/>
		<line class="st11" x1="175.9" y1="179.2" x2="137.6" y2="137"/>
		<line class="st11" x1="156.8" y1="144.6" x2="137.6" y2="137"/>
		<line class="st11" x1="258.3" y1="132.6" x2="156.8" y2="144.6"/>
		<line class="st11" x1="231" y1="178.4" x2="243.8" y2="146.1"/>
		<line class="st11" x1="258.2" y1="132.7" x2="243.8" y2="146.1"/>
		<line class="st11" x1="231" y1="178.4" x2="186.3" y2="181.5"/>
		<line class="st11" x1="175.9" y1="179.2" x2="186.3" y2="181.5"/>
		<path class="st11" d="M117.6,187.5c-10.5,0.7-21,1.4-31.5,2.1"/>
		<line class="st11" x1="123.1" y1="155.3" x2="86.2" y2="189.6"/>
		<line class="st12" x1="122.8" y1="155.2" x2="137.4" y2="136.8"/>
		<line class="st12" x1="123.1" y1="155.6" x2="137.4" y2="136.8"/>
	</g>
	<g id="свес">
		<path class="st0" d="M99.8,193.8c6-0.2,12-0.4,17.9-0.6c0-1.1,0-2.3,0-3.4c-10.4,0.9-20.7,1.9-31.2,2.8
			C91,193,95.4,193.4,99.8,193.8z"/>
		<path class="st0" d="M186.2,187.4c16.9-1.3,33.8-2.6,50.7-3.9c-1.7-0.9-3.4-1.7-5-2.6c-15.2,1.1-30.3,2.2-45.5,3.3
			C186.2,185.3,186.2,186.3,186.2,187.4z"/>
		<path class="st0" d="M186.2,187.4c-5.9-1.6-11.7-3.2-17.6-4.7c2.4,0,4.8,0,7.2,0c3.5,0.5,6.9,1.1,10.4,1.6
			C186.2,185.3,186.2,186.3,186.2,187.4z"/>
	</g>
	<path class="st13" d="M137.4,137.6c-0.7,0.1-1.1,0.8-1.4,1.3c-1.2,2.1-2.7,3.9-4,5.9c-0.2,0.4-1.4,1.9-3.7,5c-1.6,2.2-2.2,3-4.5,6
		c-0.9,1.2-1.6,2.1-2.6,3.5c-2.7,3.7-3.5,4.7-5.4,7.4c-4.4,6-10.4,14-10.7,14.3c-0.1,0.1-0.2,0.3-0.5,0.6c-0.3,0.4-0.4,0.6-0.4,0.6
		c-0.2,0.4,0,0.6-0.1,1.7c0,0.5-0.1,0.7-0.1,0.8c-0.1,0.4-0.1,0.6,0,0.7c0,0,0.1,0.1,0.4,0.1c0.2,0.1,0.4,0.1,0.7,0.1
		c0.4-0.1,0.6,0.1,1.4,0.1c1.2,0.1,1.3-0.1,2.6-0.1c0.4,0,0.2,0.1,1.2,0.1c1.9,0.1,1.2,0,1.9,0.1c0.2,0,0.4,0.1,0.7-0.1
		c0.1-0.1,0.4-0.1,0.5-0.3c0.2-0.2,0.1-0.6,0.1-1.1c0,0-0.1-0.3-0.1-1.4c-0.1-0.6,0-0.6,0-1.7c0-1-0.1-0.9,0-1.5
		c0-1.1,0.1-1.2,0.2-2.1c0-0.8-0.2-1-0.1-1.6c0.1-0.4,0.2-0.7,0.3-1.2c0.1-0.2,0.2-0.8,0.6-1.4c0.4-0.8,0.9-1.3,1.3-1.9
		c0.7-0.9,1.4-2,2.2-2.9c0.6-0.8,1.2-1.7,1.9-2.5c3.1-4.1,16.2-22.7,16.6-23.3c0.1-0.1,0.2-0.4,0.6-0.8c0.2-0.2,0,0.1,0.3-0.4
		c0.3-0.4,0.3-0.4,0.4-0.4s0.2,0.1,0.6,0.3c0.5,0.4,0.8,0.8,0.9,0.9c0.2,0.2,0.4,0.5,0.6,0.7c1.2,1.4,22.7,25,23.7,25.7
		c0.1,0.1,0.3,0.2,0.6,0.6c0,0,0.1,0.2,0.2,0.3c0.4,1.1,0.2,3.3,0.2,3.3c0,0.1,0,1-0.1,2.8c-0.1,4.1,0.1,4.1,0.1,4.5
		c-0.1,0.4,0.1,0.7,0.1,1.1c0,0.1,0,0.2,0.1,0.4c0.1,0.1,0.2,0.1,0.4,0.1c0.2,0,0.5,0,0.7,0c1.2-0.1,8.7,0,9.8-0.1
		c0.1,0,0.2,0,0.4,0c0.4,0,0.6,0.1,0.8,0.2c0.4,0.1,0.6,0.1,0.9,0.1c1.4,0.1,7.2,1.5,8.8,1.6c0.2,0,0.4,0,0.4,0c0.3,0,0.9,0,1.4-0.1
		c0.6-0.1,1.1-0.1,1.1-0.1c2.7-0.5,15.5-1.1,15.5-1.1c4.4-0.2,7.6-0.6,12.8-1.1c4.4-0.4,8.9-0.5,13.3-0.9c0.2,0,0.3,0,0.6,0
		c0.3,0,0.4,0.1,0.5,0.1c0.2,0.1,0.4,0.2,0.4,0.3c0.2,0.2,0.4,0.2,1.2,0.6c0.1,0.1,0.4,0.2,1,0.5c0.2,0.1,0.6,0.2,0.9,0.4
		c0.3,0.2,0.5,0.3,0.7,0.3c0.2-0.1,0.2-0.1,0.3-0.2c0.2-0.2,0.2-0.4,0.2-0.6c0.1-0.8-0.3-2.9-0.3-4.2c0-0.6,0.1-0.4,0.1-1.2
		c0.1-1.6-0.2-3.7-0.1-4.5c0.1-0.2,0.1-0.5,0.1-0.5c0.1-0.3,0.2-0.5,0.2-0.6c0.2-0.5,0.4-1,0.6-1.6c0.9-1.9,7.7-20.4,7.9-21.1
		c0,0,0.1-0.2,0.1-0.3s0.1-0.2,0.1-0.2c0.1-0.1,0.2-0.2,0.2-0.2c0.2-0.2,0.4-0.5,1.3-1.4c1.3-1.3,6.2-6.1,7.7-7.6
		c0.7-0.7,1.4-1.4,2.1-2.1c0.4-0.4,0.4-0.5,0.6-0.6c0.1-0.1,0.3-0.2,0.5-0.4c0.1-0.1,0.1-0.2,0.2-0.4c0.1-0.2,0.1-0.3,0.1-0.5
		c0-0.1-0.1-0.1-0.2-0.3c-0.2-0.3-0.2-0.4-0.3-0.5c-0.2-0.1-0.5,0.2-0.5,0.3c-1.1,1.2-2.5,1.9-3.5,3.1c-2.1,2.5-5.5,5.2-6.8,6.2
		c0,0-1,0.7-2.9,2.9c-0.2,0.2-0.3,0.5-0.3,0.5c-0.1,0.1-0.1,0.1-0.1,0.4c-0.1,0.2-0.1,0.4-0.2,0.6c-0.1,0.3-0.8,2.2-1.6,4.3
		c-1.2,2.9-2.5,6.2-4.5,11.2c-1.1,2.7-2.7,6.7-3.2,8c-0.1,0.1-0.2,0.4-0.3,0.8c-0.2,0.6-0.4,0.9-0.4,1.1c-0.5,1.4-0.6,1.6-1.1,2.7
		c-0.3,0.8-0.7,1.6-0.9,2.4c-0.1,0.3-0.1,0.7-0.4,1c-0.3,0.2-0.7,0.2-1.1,0.2c-0.6,0-1.3,0.1-1.9,0.1c0,0-12.8,0.9-38.4,2.7
		l-0.5,0.1h-0.3c-0.5,0.1-0.5,0.1-0.5,0.1c-0.2,0-0.3,0.1-0.4,0s-0.1-0.1-0.2-0.1c-0.2,0-0.3,0.1-0.4,0.1c-0.1,0.1-0.2,0.1-0.9-0.1
		c-0.4-0.1-0.8-0.2-0.8-0.2c-0.6-0.2-0.7-0.2-1.6-0.4c-0.9-0.2-1.1-0.4-2-0.7c-1.9-0.6-4.4-1.1-4.9-1.1c-0.1,0-0.2,0-0.5-0.1
		c-0.2-0.1-0.3-0.2-0.4-0.2c-0.5-0.4-0.7-0.6-0.7-0.6c-1.9-1.8-2.6-2.6-2.6-2.6c-0.9-1.1-0.3-0.2-3.1-3.2c-4.1-4.4-8.2-9-8.2-9
		c-1.6-1.8-0.4-0.4-10.5-11.4c-7.7-8.4-11.5-12.6-11.5-12.6C139.4,139.6,138.5,137.5,137.4,137.6z"/>
	<g id="контур">
		<g>
			<path class="st8" d="M267.6,156.4c-2,0-4.1,0-6,0c-2.3-5.7-4.5-11.3-6.9-17c1.4-1.4,2.9-2.9,4.4-4.3
				C261.9,142.2,264.7,149.3,267.6,156.4z"/>
			<path class="st6" d="M273.2,197.1c-2.1,0.2-4.2,0.5-6.2,0.7c-1.8-13.8-3.6-27.6-5.5-41.4c2,0,4.1,0,6,0
				C269.4,170,271.3,183.6,273.2,197.1z"/>
		</g>
		<line class="st14" x1="113.6" y1="186.2" x2="103.7" y2="186.2"/>
		<line class="st14" x1="103.7" y1="182.3" x2="103.7" y2="186.2"/>
		<line class="st14" x1="113.6" y1="175.2" x2="113.6" y2="186.2"/>
		<line class="st14" x1="103.7" y1="182.3" x2="137.4" y2="137.2"/>
		<line class="st14" x1="113.6" y1="175.2" x2="137.8" y2="141.5"/>
		<line class="st14" x1="137.4" y1="137" x2="175.9" y2="179.3"/>
		<line class="st14" x1="137.8" y1="141.5" x2="164.2" y2="170.3"/>
		<line class="st14" x1="164.2" y1="182.3" x2="164.2" y2="170.3"/>
		<line class="st14" x1="175.9" y1="182.3" x2="164.2" y2="182.3"/>
		<line class="st14" x1="175.9" y1="179.3" x2="186.8" y2="182.1"/>
		<line class="st14" x1="186.7" y1="184.3" x2="175.9" y2="182.3"/>
		<line class="st14" x1="186.8" y1="182.1" x2="231.4" y2="179.2"/>
		<line class="st14" x1="186.7" y1="184.3" x2="231.7" y2="180.9"/>
		<line class="st14" x1="237" y1="183.3" x2="237" y2="171.9"/>
		<line class="st14" x1="231.7" y1="180.9" x2="237" y2="183.3"/>
		<line class="st14" x1="254.7" y1="139.4" x2="261.5" y2="156.4"/>
		<line class="st14" x1="258.5" y1="132.7" x2="267.6" y2="156.4"/>
		<line class="st14" x1="261.5" y1="156.4" x2="266.4" y2="195.7"/>
		<path class="st14" d="M267.6,156.4c1.8,13.2,3.7,26.4,5.5,39.7"/>
		<line class="st14" x1="244.4" y1="146.2" x2="231.4" y2="179.2"/>
		<line class="st14" x1="258.5" y1="132.7" x2="244.4" y2="146.2"/>
		<line class="st14" x1="237" y1="171.9" x2="246.2" y2="147.8"/>
		<line class="st14" x1="259" y1="135.1" x2="246.2" y2="147.8"/>
	</g>
	<line class="st15" x1="172.4" y1="151.4" x2="156.8" y2="144.6"/>
	<line class="st15" x1="186.4" y1="180.9" x2="172.4" y2="151.4"/>
	<path class="st8" d="M113.6,175.2c1.7,0.6,3.4,1.2,5.1,1.7c7.6-10.5,15.2-20.9,22.9-31.4c-1.2-1.2-2.4-2.4-3.6-3.7
		C129.8,153,121.7,164.1,113.6,175.2z"/>
	<path class="st6" d="M118.5,186.1c-1.6,0.1-3.3,0.2-4.9,0.3c0-3.8,0-7.5,0-11.3c1.7,0.6,3.4,1.2,5.1,1.7
		C118.6,180,118.6,183.1,118.5,186.1z"/>
	<g id="козырек">
		<rect x="170" y="214.3" class="st16" width="46" height="1.4"/>
		<path class="st16" d="M216.1,214.3c0,0.4,0,0.9,0,1.4c3.7-6.8,7.4-13.6,11.1-20.4c0-0.5,0-1,0-1.4
			C223.5,200.6,219.8,207.5,216.1,214.3z"/>
		<path class="st17" d="M184.4,195.2c14.2-0.6,28.4-1.1,42.6-1.7c-3.8,6.9-7.5,13.8-11.3,20.7c-15.3,0.1-30.6,0.1-45.9,0.1
			C174.6,208,179.5,201.6,184.4,195.2z"/>
	</g>
	<g id="крыша_гараж">
		<path class="st16" d="M288.5,215.8c-21.6,0-43.2,0-64.8,0c0-0.6,0-1.3,0.1-1.9c21.6-0.1,43.2-0.2,64.8-0.3
			C288.5,214.3,288.5,215.1,288.5,215.8z"/>
		<path class="st18" d="M313.3,220.2c-8.3-1.5-16.5-2.9-24.8-4.4c0-0.7,0.1-1.5,0.1-2.2c8.2,1.6,16.5,3.2,24.7,4.9
			C313.3,219,313.3,219.6,313.3,220.2z"/>
		<path class="st17" d="M220,213.8c22.9-0.1,45.7-0.2,68.5-0.3c-2.3-5.7-4.6-11.5-6.9-17.3c-12,0.3-24.1,0.6-36,0.9
			C237,202.7,228.5,208.3,220,213.8z"/>
		<path class="st19" d="M281.6,196.2c2.3,5.7,4.6,11.5,6.9,17.3c8.8,1.7,17.6,3.5,26.4,5.2C303.8,211.3,292.7,203.8,281.6,196.2z"/>
	</g>
	<g id="низ_1_">
		<g id="низ">
			<path class="st18" d="M319.1,260h-0.5h-0.2c-0.2,0-0.2,0-0.2,0l0,0c-1.2,0-2.7-0.4-2.7-0.4c-0.9-0.2-1.1-0.2-2.9-0.4
				c-1.4-0.2-3.7-0.5-7.5-1.2c-2.3-0.1-4.2,0.2-5.4,0.4c-0.4,0.1-5.6,1.2-7,1.2c-0.4,0-0.7,0-1.1,0c-0.3,0-0.6,0-0.9,0h-1.4
				c-2-0.1-66.5-1.2-67.9-1.2c0,0-0.9,0-0.9,0c-1.4,0-1.4,0-1.4,0c-0.8-0.1-0.9-0.1-0.9,0c-0.4,0.4,1.8,2.7,1.3,3.6
				c-0.3,0.5-1.2,0.2-4.2,0.1c-2.3-0.1-1.9,0-3.4-0.1c-2.8-0.2-5.2-0.4-5.9-1.9c-0.1-0.3-0.2-0.8-0.1-1.5c-0.1-0.2-0.3-0.4-0.5-0.4
				h-0.1c-0.7,0.1-41.5-0.7-104.6-1.9c-4.7,1.7-9.3,3.3-14,5c5.4,0.1,13.1,0.2,22.3,0.4c23.4,0.5,62.4,1.2,111,2.9
				c19,0.6,43.3,1.6,71.6,2.8C300.8,264.8,310,262.4,319.1,260z"/>
			<path class="st18" d="M175.9,265.8c-24.2-0.8-48.4-1.6-72.6-2.4c3-1.1,5.9-2.1,8.9-3.1c28.7-0.1,57.5-0.2,86.2-0.3
				C190.9,261.9,183.4,263.9,175.9,265.8z"/>
			<path class="st18" d="M183.6,259.6c13.7,0.9,27.4,1.7,41.1,2.6c-2.9,1.4-5.7,2.7-8.6,4.1c-12.3-0.7-24.7-1.4-37-2.1
				C180.6,262.8,182.1,261.2,183.6,259.6z"/>
		</g>
		<g id="контур_низ">
			<rect x="180.6" y="252.5" class="st20" width="25.6" height="0.5"/>
			<rect x="179.4" y="253.1" class="st21" width="26.7" height="2.9"/>
			<rect x="178" y="255.9" class="st22" width="28.6" height="2.9"/>
			<line class="st23" x1="173" y1="258.7" x2="212.1" y2="258.7"/>
			<line class="st23" x1="178" y1="255.6" x2="206.3" y2="255.7"/>
			<line class="st23" x1="170.7" y1="262" x2="212.1" y2="262"/>
			<line class="st24" x1="86.8" y1="261" x2="98.8" y2="256.8"/>
			<line class="st24" x1="109.1" y1="261.5" x2="86.8" y2="261"/>
			<line class="st24" x1="102.7" y1="263.4" x2="109.1" y2="261.5"/>
			<line class="st24" x1="175.9" y1="265.8" x2="102.7" y2="263.4"/>
			<line class="st24" x1="180.1" y1="264.6" x2="175.9" y2="265.8"/>
			<line class="st24" x1="216.1" y1="266.4" x2="180.1" y2="264.6"/>
			<line class="st24" x1="220" y1="264.6" x2="216.1" y2="266.4"/>
			<line class="st24" x1="292.5" y1="267.3" x2="220" y2="264.6"/>
			<line class="st24" x1="319.1" y1="260" x2="292.5" y2="267.3"/>
			<line class="st24" x1="305.5" y1="258.1" x2="319.1" y2="260"/>
		</g>
	</g>
	<g id="цоколь">
		<g id="слив_у_фронтона">
			<path class="st16" d="M100.6,250.2c6,0,12,0,18,0v1.4c-6.6-0.2-13.1-0.3-19.8-0.5C99.4,250.8,99.9,250.5,100.6,250.2z"/>
			<path class="st9" d="M170.7,251.6c0.8,0,1.6-0.1,2.4-0.1c0,0.4,0,0.9,0,1.3c-0.8,0.1-1.6,0.1-2.4,0.1
				C170.7,252.4,170.7,252,170.7,251.6z"/>
			<rect x="180.6" y="251.8" class="st9" width="25.6" height="0.7"/>
			<rect x="212" y="252.9" class="st16" width="20.9" height="1.2"/>
			<path class="st16" d="M283.6,254.1c-3.6,0-7.2,0-10.8,0v-1.2c3.5,0,6.9,0,10.4,0C283.4,253.3,283.5,253.8,283.6,254.1z"/>
			<path class="st18" d="M305.9,252.5c-7.4,0.6-14.8,1.1-22.2,1.6c-0.1-0.4-0.2-0.8-0.4-1.2c7.5-0.4,15.1-0.9,22.6-1.3
				C305.9,251.9,305.9,252.2,305.9,252.5z"/>
		</g>
		<rect x="98.8" y="251.1" class="st25" width="19.5" height="7.5"/>
		<path class="st16" d="M118.5,251.6c17.4,0,34.8,0,52.2,0v1.4h-54.2C117.2,252.4,117.9,252,118.5,251.6z"/>
		<rect x="116.6" y="253.1" class="st26" width="54.1" height="6.9"/>
		<path class="st27" d="M170.7,260c0.7-0.1,1.5-0.2,2.2-0.4c0-2.2,0-4.5,0-6.8c-0.7,0.1-1.5,0.2-2.2,0.2V260z"/>
		<rect x="214.7" y="254.1" class="st28" width="18.3" height="7.6"/>
		<rect x="272.9" y="254.1" class="st28" width="10.8" height="7.8"/>
		<path class="st29" d="M283.6,254.1c7.5-0.6,15.1-1.1,22.6-1.7c0,1.8-0.1,3.6-0.1,5.5c-7.5,1.3-15.1,2.7-22.6,4
			C283.6,259.4,283.6,256.7,283.6,254.1z"/>
		<line class="st30" x1="100.6" y1="250.2" x2="98.8" y2="251"/>
		<line class="st31" x1="116.5" y1="252.9" x2="118.5" y2="251.6"/>
		<line class="st30" x1="118.5" y1="250.2" x2="100.6" y2="250.2"/>
		<line class="st30" x1="118.5" y1="251.6" x2="118.5" y2="250.2"/>
		<line class="st30" x1="170.7" y1="251.6" x2="118.5" y2="251.6"/>
		<line class="st30" x1="173.1" y1="251.5" x2="170.7" y2="251.6"/>
		<line class="st30" x1="170.7" y1="252.9" x2="170.7" y2="251.6"/>
		<line class="st30" x1="214.6" y1="252.9" x2="233" y2="252.9"/>
		<line class="st30" x1="272.9" y1="252.9" x2="283.3" y2="252.9"/>
		<line class="st30" x1="305.9" y1="251.6" x2="283.3" y2="252.9"/>
		<line class="st30" x1="214.6" y1="254" x2="214.6" y2="252.9"/>
		<line class="st30" x1="173.1" y1="252.8" x2="173.1" y2="251.5"/>
		<path class="st32" d="M214.7,261.7c-0.8,0.1-1.6,0.2-2.4,0.4c0-2.6,0-5.2,0-7.7c0.8-0.1,1.6-0.2,2.4-0.2
			C214.7,256.7,214.7,259.2,214.7,261.7z"/>
		<line class="st30" x1="212.1" y1="253.1" x2="214.6" y2="252.9"/>
		<line class="st30" x1="212.1" y1="254.2" x2="212.1" y2="253.1"/>
	</g>
	<rect x="170.7" y="259" class="st33" width="41.4" height="2.9"/>
	<g id="дверь">
		<g>
			<rect x="197" y="220.6" class="st20" width="16.6" height="30.7"/>
			<path class="st34" d="M213,221.1v29.7h-15.6v-29.7H213 M214,220.1h-17.6v31.7H214V220.1L214,220.1z"/>
		</g>
		<g>
			<rect x="199.2" y="223.5" class="st35" width="11.8" height="6.2"/>
			<path class="st36" d="M210.8,223.7v5.7h-11.3v-5.7H210.8 M211.3,223.2h-12.3v6.7h12.3V223.2L211.3,223.2z"/>
		</g>
		<g>
			<rect x="199.2" y="231.3" class="st35" width="11.8" height="6.2"/>
			<path class="st36" d="M210.8,231.6v5.7h-11.3v-5.7H210.8 M211.3,231.1h-12.3v6.7h12.3V231.1L211.3,231.1z"/>
		</g>
		<g>
			<rect x="199.3" y="239.6" class="st35" width="11.7" height="10.5"/>
			<path class="st36" d="M210.7,239.9v9.9h-11v-9.9H210.7 M211.3,239.2h-12.3v11.2h12.3V239.2L211.3,239.2z"/>
		</g>
	</g>
	<g>
		<rect x="206.6" y="215.6" class="st18" width="2.7" height="43.2"/>
		<rect x="206.2" y="215.7" class="st18" width="1.8" height="40.2"/>
		<path class="st16" d="M212,258.9c-0.9,0-1.9,0-2.8,0v-43.2h2.9C212.1,230.1,212,244.5,212,258.9z"/>
	</g>
	<g>
		<rect x="173.2" y="215.6" class="st18" width="2.9" height="42.7"/>
		<rect x="177.2" y="215.8" class="st16" width="1.8" height="40"/>
		<rect x="176.1" y="215.8" class="st16" width="1.7" height="42.6"/>
	</g>
	<rect x="232.5" y="225.9" class="st0" width="40.4" height="32.8"/>
	<g>
		<rect x="236.8" y="228.3" class="st37" width="36.1" height="30.3"/>
	</g>
	<g id="окно">
		<rect x="133.8" y="222.1" class="st35" width="21" height="21.4"/>
		<rect x="135.3" y="222.1" class="st38" width="17.8" height="20.9"/>
		<g>
			<rect x="135.9" y="222.6" class="st16" width="5.5" height="19.9"/>
			<path class="st39" d="M141.2,222.7v19.7H136v-19.7H141.2 M141.6,222.5h-5.8v20.3h5.8V222.5L141.6,222.5z"/>
		</g>
		<g>
			<rect x="141.1" y="222.6" class="st16" width="5.5" height="19.9"/>
			<path class="st39" d="M146.5,222.7v19.7h-5.2v-19.7H146.5 M146.8,222.5H141v20.3h5.8V222.5L146.8,222.5z"/>
		</g>
		<g>
			<rect x="146.9" y="222.6" class="st16" width="5.5" height="19.9"/>
			<path class="st39" d="M152.3,222.7v19.7H147v-19.7H152.3 M152.5,222.5h-5.8v20.3h5.8V222.5L152.5,222.5z"/>
		</g>
		<rect x="133.3" y="219" class="st37" width="21.9" height="3.2"/>
		<rect x="133.3" y="243.5" class="st37" width="21.9" height="2.1"/>
		<g>
			<rect x="133.4" y="243.7" class="st0" width="21.6" height="0.8"/>
			<path class="st0" d="M154.9,243.8v0.6h-21.4v-0.6H154.9 M155.1,243.5h-21.8v1.1h21.8V243.5L155.1,243.5z"/>
		</g>
	</g>
	<g id="окно_2_">
		<rect x="107.9" y="223.8" class="st35" width="10" height="17.8"/>
		<rect x="109.1" y="223.8" class="st38" width="8.7" height="17.4"/>
		<g>
			<rect x="109.6" y="224.2" class="st16" width="4.6" height="16.6"/>
			<path class="st39" d="M114.1,224.3v16.5h-4.4v-16.5H114.1 M114.3,224.1h-4.8V241h4.8V224.1L114.3,224.1z"/>
		</g>
		<g>
			<rect x="114" y="224.2" class="st16" width="3.7" height="16.6"/>
			<path class="st39" d="M117.6,224.3v16.5h-3.5v-16.5H117.6 M117.8,224.1h-3.9V241h3.9V224.1L117.8,224.1z"/>
		</g>
		<g>
			<rect x="114.3" y="224.3" class="st16" width="3.5" height="16.4"/>
		</g>
		<rect x="107.5" y="221.2" class="st37" width="10.3" height="2.6"/>
		<rect x="107.5" y="241.7" class="st37" width="10.3" height="1.8"/>
		<g>
			<rect x="107.5" y="241.7" class="st0" width="10.2" height="0.7"/>
			<path class="st0" d="M117.6,241.8v0.6h-10v-0.6H117.6 M117.8,241.7h-10.3v0.9h10.3L117.8,241.7L117.8,241.7z"/>
		</g>
	</g>
	<g id="окно_1_">
		<rect x="133.8" y="171.9" class="st35" width="21" height="21.4"/>
		<rect x="135.3" y="171.9" class="st38" width="17.8" height="20.9"/>
		<g>
			<rect x="135.9" y="172.4" class="st16" width="5.5" height="19.9"/>
			<path class="st39" d="M141.2,172.6v19.7H136v-19.7H141.2 M141.6,172.3h-5.8v20.3h5.8V172.3L141.6,172.3z"/>
		</g>
		<g>
			<rect x="141.1" y="172.4" class="st16" width="5.5" height="19.9"/>
			<path class="st39" d="M146.5,172.6v19.7h-5.2v-19.7H146.5 M146.8,172.3H141v20.3h5.8V172.3L146.8,172.3z"/>
		</g>
		<g>
			<rect x="146.9" y="172.4" class="st16" width="5.5" height="19.9"/>
			<path class="st39" d="M152.3,172.6v19.7H147v-19.7H152.3 M152.5,172.3h-5.8v20.3h5.8V172.3L152.5,172.3z"/>
		</g>
		<path class="st37" d="M155.2,170.8c-1.6-1-5.6-3.1-11.1-3.1c-5.3,0.1-9.2,2.1-10.8,3.1c0,0.4,0,0.7,0,1.1h21.9V170.8z"/>
		<rect x="133.3" y="193.3" class="st37" width="21.9" height="2.1"/>
		<g>
			<rect x="133.4" y="193.4" class="st0" width="21.6" height="0.8"/>
			<path class="st0" d="M154.9,193.6v0.6h-21.4v-0.6H154.9 M155.1,193.3h-21.8v1.1h21.8V193.3L155.1,193.3z"/>
		</g>
	</g>
	<g id="окно2_1_">
		<path class="st40" d="M262.4,192.8c-2.3-0.9-4.6-1.7-6.9-2.6c0-4.4,0-8.7,0-13.1c2.2,0.9,4.5,1.9,6.8,2.8
			C262.3,184.1,262.4,188.5,262.4,192.8z"/>
		<path class="st41" d="M261.8,191.9c-1.9-0.7-3.8-1.5-5.7-2.2c0-3.9,0-7.8,0-11.7c1.9,0.7,3.8,1.5,5.7,2.3
			C261.8,184.1,261.8,188,261.8,191.9z"/>
		<g>
			<path class="st42" d="M258.9,190.4c-0.9-0.3-1.7-0.7-2.6-1c0-3.7,0-7.4,0-11.1c0.9,0.4,1.7,0.7,2.6,1
				C258.9,183.1,258.9,186.8,258.9,190.4z"/>
			<path class="st42" d="M261.5,191.5c-0.9-0.4-1.7-0.7-2.6-1.1c0-3.7,0-7.4,0-11c0.9,0.4,1.7,0.7,2.6,1.1
				C261.5,184.2,261.5,187.8,261.5,191.5z"/>
		</g>
	</g>
	<g id="окно2">
		<path class="st43" d="M250.3,188.7c-2.5-0.9-4.9-1.9-7.4-2.8c0-4.7,0-9.3,0-14c2.4,1,4.9,2,7.3,3
			C250.2,179.5,250.3,184.2,250.3,188.7z"/>
		<path class="st44" d="M249.6,187.8c-2.1-0.8-4.1-1.6-6.1-2.4c0-4.2,0-8.3,0-12.5c2.1,0.8,4.1,1.6,6.1,2.4
			C249.6,179.5,249.6,183.7,249.6,187.8z"/>
		<g>
			<path class="st45" d="M246.6,186.3c-0.9-0.4-1.8-0.7-2.7-1.1c0-3.9,0-7.9,0-11.8c0.9,0.4,1.9,0.7,2.7,1.1
				C246.6,178.4,246.6,182.3,246.6,186.3z"/>
			<path class="st45" d="M249.4,187.4c-0.9-0.4-1.9-0.7-2.8-1.1c0-3.9,0-7.9,0-11.8c0.9,0.4,1.9,0.8,2.7,1.2
				C249.4,179.5,249.4,183.5,249.4,187.4z"/>
		</g>
	</g>
	<path class="st46" d="M294.2,224.3c-2.3-0.4-4.6-0.7-6.9-1.1c0.1-1.1,0.1-2.2,0.1-3.3c2.3,0.5,4.5,1,6.9,1.5
		C294.2,222.4,294.2,223.3,294.2,224.3z"/>
	<path class="st47" d="M294,224.1c-2.2-0.3-4.3-0.6-6.5-0.9c0.1-1,0.1-2,0.1-3c2.1,0.4,4.2,0.9,6.4,1.3
		C294,222.4,294,223.2,294,224.1z"/>
	<path class="st48" d="M301.8,225.5c-2.1-0.3-4.2-0.6-6.4-1c0.1-1,0.1-2.1,0.1-3.1c2.1,0.4,4.2,0.9,6.2,1.4
		C301.8,223.7,301.8,224.6,301.8,225.5z"/>
	<path class="st49" d="M301.6,225.3c-2-0.3-3.9-0.6-5.9-0.9c0.1-0.9,0.1-1.8,0.1-2.7c1.9,0.4,3.9,0.8,5.8,1.2
		C301.6,223.7,301.6,224.5,301.6,225.3z"/>
	<line class="st50" x1="237.1" y1="231.5" x2="272.4" y2="231.5"/>
	<line class="st50" x1="237.1" y1="235.4" x2="272.4" y2="235.4"/>
	<line class="st50" x1="237.1" y1="239.2" x2="272.4" y2="239.2"/>
	<line class="st50" x1="237.1" y1="242.8" x2="272.4" y2="242.8"/>
	<line class="st50" x1="237.3" y1="246.5" x2="272.4" y2="246.5"/>
	<line class="st50" x1="237.1" y1="249.8" x2="272.4" y2="249.8"/>
	<line class="st50" x1="237.1" y1="253.1" x2="272.4" y2="253.1"/>
	<line class="st50" x1="237.1" y1="256.4" x2="272.4" y2="256.4"/>
	<g>
		<path class="st35" d="M271.8,229.3v28.4h-34.1v-28.4H271.8 M272.8,228.3h-36.1v30.3h36.1V228.3L272.8,228.3z"/>
	</g>
	<ellipse class="st51" cx="252.5" cy="152.9" rx="3.3" ry="5"/>
	<line class="st52" x1="252.7" y1="148.2" x2="252.5" y2="157.7"/>
	<line class="st52" x1="249.4" y1="151.9" x2="255.8" y2="153.6"/>
	<ellipse class="st53" cx="252.5" cy="152.9" rx="3.3" ry="5"/>
</g>
<image style="overflow:visible;" width="784" height="453" xlink:href="F77B3242.jpg"  transform="matrix(0.5901 0 0 0.5901 -530.9185 45.5831)">
</image>
<image style="overflow:visible;" width="695" height="377" xlink:href="F77B3246.png"  transform="matrix(9.745632e-02 0 0 9.745632e-02 171.2525 45.5831)">
</image>
<image style="overflow:visible;" width="660" height="364" xlink:href="F77B3241.png"  transform="matrix(9.488593e-02 0 0 9.488593e-02 250.3242 46.6843)">
</image>
<image style="overflow:visible;" width="543" height="356" xlink:href="F77B3242.png"  transform="matrix(0.1022 0 0 0.1022 59.9197 308.6376)">
</image>
<image style="overflow:visible;" width="410" height="731" xlink:href="F77B3240.png"  transform="matrix(7.615397e-02 0 0 7.615397e-02 314.2133 78.2339)">
</image>
<image style="overflow:visible;" width="586" height="282" xlink:href="F77B324E.png"  transform="matrix(0.1212 0 0 0.1212 328.8724 255.938)">
</image>
<image style="overflow:visible;" width="476" height="396" xlink:href="F77B3243.png"  transform="matrix(0.1059 0 0 0.1059 279.4152 305.8574)">
</image>
<image style="overflow:visible;" width="653" height="370" xlink:href="F77B3247.png"  transform="matrix(9.955699e-02 0 0 9.955699e-02 198.5346 310.6647)">
</image>
<image style="overflow:visible;" width="487" height="412" xlink:href="F77B3245.png"  transform="matrix(0.1004 0 0 0.1004 133.1058 306.1514)">
</image>
<image style="overflow:visible;" width="517" height="513" xlink:href="C4CE43D5.png"  transform="matrix(9.255022e-02 0 0 9.255022e-02 335.0661 160.3854)">
</image>
<image style="overflow:visible;" width="643" height="367" xlink:href="C4CE43EB.png"  transform="matrix(8.672968e-02 0 0 8.672968e-02 20.6126 261.5746)">
</image>
<image style="overflow:visible;" width="547" height="681" xlink:href="C4CE43ED.png"  transform="matrix(7.296717e-02 0 0 7.296717e-02 43.5838 81.2228)">
</image>
<image style="overflow:visible;" width="430" height="586" xlink:href="C4CE43EF.png"  transform="matrix(0.1079 0 0 0.1079 99.6054 21.6425)">
</image>
<image style="overflow:visible;" width="420" height="617" xlink:href="C4CE43EC.png"  transform="matrix(0.1048 0 0 0.1048 19.5159 163.907)">
</image>
<text transform="matrix(1 0 0 1 176.8398 93.502)" class="st54 st55">H-профиль</text>
<text transform="matrix(1 0 0 1 252.7242 99.7628)"><tspan x="0" y="0" class="st54 st55">Abybiysq</tspan><tspan x="0" y="10.9" class="st54 st55">ghjabkm</tspan></text>
</svg>
