<?xml version="1.0" encoding="utf-8"?>
<!-- Generator: Adobe Illustrator 24.2.1, SVG Export Plug-In . SVG Version: 6.00 Build 0)  -->
<svg version="1.1" id="Слой_1" xmlns="http://www.w3.org/2000/svg" xmlns:xlink="http://www.w3.org/1999/xlink" x="0px" y="0px"
	 viewBox="0 0 400 400" style="enable-background:new 0 0 400 400;" xml:space="preserve">
<style type="text/css">
	.st0{fill:#D7D7D7;stroke:#8E8E8E;stroke-miterlimit:10;}
	.st1{fill:#F1B965;}
	.st2{opacity:0.4;fill:#575756;stroke:#1D1D1B;stroke-width:0.5986;stroke-miterlimit:10;enable-background:new    ;}
	.st3{fill:#D36D25;stroke:#87683E;stroke-miterlimit:10;}
	.st4{fill:#1D1D1B;}
	.st5{fill:#606060;}
	.st6{fill:none;stroke:#777777;stroke-width:0.5323;stroke-miterlimit:10;}
	.st7{display:none;fill:none;stroke:#9C9B9B;stroke-width:0.5323;stroke-miterlimit:10;}
	.st8{fill:#A55839;}
	.st9{fill:#BC6446;}
	.st10{fill:none;stroke:#000000;stroke-width:0.5;stroke-miterlimit:10;}
	.st11{opacity:0.41;fill:none;stroke:#000000;stroke-miterlimit:10;enable-background:new    ;}
	.st12{fill:#AD5A23;stroke:#87683E;stroke-width:0.6822;stroke-miterlimit:10;}
	.st13{fill:#D36D25;stroke:#87683E;stroke-width:1.0352;stroke-miterlimit:10;}
	.st14{fill:#AD5A23;stroke:#87683E;stroke-width:0.5318;stroke-miterlimit:10;}
	.st15{fill:#D36D25;stroke:#87683E;stroke-width:0.6649;stroke-miterlimit:10;}
	.st16{fill:#D36D25;stroke:#87683E;stroke-width:0.6545;stroke-miterlimit:10;}
	.st17{fill:#A8A8A8;stroke:#87683E;stroke-width:0.5355;stroke-miterlimit:10;}
	.st18{fill:#C6C6C6;stroke:#87683E;stroke-width:0.2677;stroke-miterlimit:10;}
	.st19{fill:#D9D9D9;stroke:#87683E;stroke-width:1.071;stroke-miterlimit:10;}
	.st20{fill:none;stroke:#87683E;stroke-width:0.2768;stroke-miterlimit:10;}
	.st21{fill:#D36D25;stroke:#87683E;stroke-width:0.6079;stroke-miterlimit:10;}
	.st22{fill:#AF571C;stroke:#87683E;stroke-width:0.6203;stroke-miterlimit:10;}
	.st23{fill:#D36D25;stroke:#87683E;stroke-width:0.9412;stroke-miterlimit:10;}
	.st24{fill:#D36D25;stroke:#87683E;stroke-width:0.4835;stroke-miterlimit:10;}
	.st25{fill:#D36D25;stroke:#87683E;stroke-width:0.6045;stroke-miterlimit:10;}
	.st26{fill:#D36D25;stroke:#87683E;stroke-width:0.595;stroke-miterlimit:10;}
	.st27{fill:#B2B2B2;stroke:#87683E;stroke-width:0.2677;stroke-miterlimit:10;}
	.st28{fill:#C6C6C6;stroke:#87683E;stroke-width:0.2777;stroke-miterlimit:10;}
	.st29{fill:none;stroke:#87683E;stroke-width:0.2677;stroke-miterlimit:10;}
	.st30{fill:#C46526;stroke:#87683E;stroke-width:0.5526;stroke-miterlimit:10;}
</style>
<g>
	<rect x="36.1" y="353.9" class="st0" width="320" height="9.7"/>
	<path class="st0" d="M355.2,354.7v8.1H36.9v-8.1H355.2 M356.9,353H35.3v11.4h321.6V353L356.9,353z"/>
</g>
<g>
	<g>
		<g>
			<path id="SVGID_1_" class="st1" d="M28.1,175.9c20.3-21.6,33.6-40.9,42.1-54.7C83.9,99,85.3,90.7,99,77.7
				c13.9-13.2,32.2-23.3,42.5-29.1c12.5-7,12.9-5.9,23.9-12.5c17.4-10.5,21.3-16.1,30.7-16.5c4-0.2,7.4,0.7,23.5,9.6
				c20.1,11.1,34.9,20.7,35.9,21.4c23.2,15.3,34.7,22.9,35.3,23.3c23.7,19.8,38.2,44.2,43.5,53.1c10.3,17.2,9.9,22.4,17.9,28.3
				c0,0,8.3,6.1,12.2,16.4c0.1,0.4,0.5,1.3,0.1,2.1c-0.6,1-2.3,1.2-3,1.2c-0.4,0.1-0.8,0-1,0c0,59.3,0,118.7,0,178
				c-109.4-0.1-218.9-0.3-328.3-0.4c-0.5-107.4-0.7-175-0.5-176.7c0-0.1,0.2-0.7-0.1-1C31.1,174.5,29.4,175.2,28.1,175.9z"/>
		</g>
	</g>
</g>
<rect x="354.4" y="175" class="st2" width="5.8" height="178"/>
<rect x="32.3" y="175" class="st2" width="5.8" height="178"/>
<g>
	<rect x="79.1" y="213.4" class="st3" width="56" height="136.9"/>
	<path class="st3" d="M134.2,214.2v135.3H79.8V214.2H134.2 M135.8,212.6h-1.6H79.8h-1.6v1.6v135.3v1.6h1.6h54.4h1.6v-1.6V214.2
		L135.8,212.6L135.8,212.6z"/>
</g>
<rect x="78.1" y="350.4" class="st4" width="57.9" height="1.5"/>
<g>
	<g>
		<path class="st4" d="M83.8,284.8c1.7,0,1.7-2.7,0-2.7C82.1,282.1,82.1,284.8,83.8,284.8L83.8,284.8z"/>
	</g>
</g>
<g>
	<g>
		<path class="st5" d="M84.9,282.9c-0.1-0.1-0.1-0.3-0.1-0.4C84.8,282.6,84.8,282.7,84.9,282.9c-0.1-0.2-0.1-0.4,0-0.6
			c0,0.1,0,0.2-0.1,0.4c0-0.2,0.1-0.3,0.1-0.5c0,0.1-0.1,0.2-0.1,0.3c0.1-0.2,0.2-0.3,0.3-0.4c-0.1,0.1-0.1,0.2-0.2,0.3
			c0.1-0.1,0.2-0.2,0.3-0.3c-0.1,0.1-0.2,0.1-0.3,0.2c0.1-0.1,0.2-0.2,0.4-0.2c-0.1,0-0.2,0.1-0.3,0.1c0.2-0.1,0.3-0.1,0.5-0.1
			c-0.1,0-0.2,0-0.3,0c0.2,0,0.3,0,0.5,0c-0.1,0-0.2,0-0.3,0c0.2,0,0.4,0.1,0.5,0.1c-0.1,0-0.2-0.1-0.3-0.1c0.2,0.1,0.3,0.1,0.4,0.2
			c-0.1-0.1-0.2-0.1-0.3-0.2l0.1,0.1c0.3,0.2,0.6,0.4,0.9,0.4s0.7-0.1,0.9-0.4c0.2-0.3,0.4-0.6,0.4-0.9c0-0.4-0.1-0.7-0.4-0.9
			c-0.8-0.8-2-1.1-3.1-0.8c-1.1,0.3-2,1.2-2.2,2.3c-0.1,0.6-0.2,1.2,0.1,1.8c0.1,0.3,0.3,0.6,0.6,0.8c0.3,0.2,0.7,0.2,1,0.1
			s0.6-0.3,0.8-0.6C84.9,283.6,85,283.2,84.9,282.9L84.9,282.9z"/>
	</g>
</g>
<circle class="st6" cx="83.8" cy="287.6" r="1.2"/>
<line class="st7" x1="26.9" y1="174.3" x2="366.5" y2="174.3"/>
<g>
	<path class="st8" d="M291.2,66.9C259,50.5,226.7,34,194.5,17.6c0-3.2,0-6.4,0-9.6c34,17.5,68.1,35,102.1,52.5
		C294.9,62.6,293.1,64.8,291.2,66.9z"/>
	<path class="st8" d="M376,205.4c-28.3-46.1-56.5-92.3-84.8-138.4c1.8-2.2,3.6-4.3,5.4-6.5c28.8,47,57.5,93.9,86.3,140.9
		C380.6,202.7,378.3,204.1,376,205.4z"/>
	<path class="st9" d="M284.8,72.8c-30.1-15.3-60.2-30.7-90.3-46c0-3.1,0-6.2,0-9.3C226.7,34,259,50.5,291.2,67
		C289.1,68.9,287,70.9,284.8,72.8z"/>
	<path class="st9" d="M368.8,209.6c-28-45.6-56-91.2-84-136.8c2.1-2,4.3-3.9,6.4-5.9c28.3,46.1,56.5,92.3,84.8,138.4
		C373.6,206.8,371.2,208.2,368.8,209.6z"/>
	<line class="st10" x1="194.5" y1="26.8" x2="284.8" y2="72.8"/>
	<line class="st10" x1="368.8" y1="209.6" x2="284.8" y2="72.8"/>
</g>
<g>
	<path class="st8" d="M98.7,67c15.4-8.6,31.3-17.2,47.9-25.7c16.3-8.4,32.2-16.3,47.9-23.7c0-3.2,0-6.4,0-9.6
		c-16.6,7.9-33.5,16.3-50.7,25.3c-17.5,9.1-34.3,18.2-50.5,27.3C95.1,62.7,96.9,64.9,98.7,67z"/>
	<path class="st8" d="M16.8,207.2c27.4-46.7,54.6-93.4,82-140.1c-1.8-2.2-3.7-4.2-5.5-6.4c-27.8,47.6-55.6,95.1-83.4,142.6
		C12.1,204.6,14.5,205.9,16.8,207.2z"/>
	<path class="st9" d="M105.3,72.7c14.3-8,29.2-16,44.7-23.9c15.1-7.8,30-15.1,44.6-22c0-3.1,0-6.1,0-9.2C179,25,163,32.9,146.7,41.3
		c-16.6,8.5-32.5,17.1-47.8,25.7C100.9,68.9,103.1,70.9,105.3,72.7z"/>
	<path class="st9" d="M24.1,211.2c27.1-46.2,54.1-92.3,81.2-138.5c-2.1-2-4.4-3.8-6.5-5.8c-27.4,46.7-54.6,93.4-82,140.1
		C19.2,208.5,21.6,209.9,24.1,211.2z"/>
	<path class="st10" d="M194.5,26.8c-29.7,15.3-59.5,30.6-89.2,45.9"/>
	<line class="st10" x1="24.1" y1="211.2" x2="105.3" y2="72.7"/>
</g>
<line class="st11" x1="38.4" y1="186.2" x2="354.1" y2="186.2"/>
<g id="окно1_7_">
	<rect x="132.9" y="161.7" class="st12" width="62" height="2.2"/>
	<rect x="133.6" y="164.1" class="st13" width="60.5" height="5.5"/>
	<rect x="133.6" y="90.3" class="st14" width="60.5" height="1.4"/>
	<rect x="141.4" y="96.1" class="st15" width="45" height="65.8"/>
	<rect x="135.4" y="91.8" class="st15" width="6" height="71.1"/>
	<rect x="186.4" y="91.8" class="st15" width="6" height="71.1"/>
	<rect x="141.4" y="91.8" class="st16" width="45" height="4.3"/>
	<rect x="142.9" y="98.6" class="st17" width="41.9" height="60.6"/>
	<rect x="144" y="99.3" class="st18" width="39.9" height="58.8"/>
	<rect x="144" y="127.4" class="st19" width="39.9" height="2.1"/>
	<rect x="163.1" y="99.3" class="st19" width="1.8" height="58.8"/>
	<rect x="144" y="99.3" class="st20" width="39.9" height="58.8"/>
	<rect x="132.3" y="87.9" class="st21" width="63.2" height="1.8"/>
</g>
<g id="окно1_4_">
	<rect x="196.9" y="161.7" class="st12" width="62" height="2.2"/>
	<rect x="197.6" y="164.1" class="st13" width="60.5" height="5.5"/>
	<rect x="197.6" y="90.3" class="st14" width="60.5" height="1.4"/>
	<rect x="205.5" y="96.1" class="st15" width="45" height="65.8"/>
	<rect x="199.5" y="91.8" class="st15" width="6" height="71.1"/>
	<rect x="250.4" y="91.8" class="st15" width="6" height="71.1"/>
	<rect x="205.5" y="91.8" class="st16" width="45" height="4.3"/>
	<rect x="207" y="98.6" class="st17" width="41.9" height="60.6"/>
	<rect x="208" y="99.3" class="st18" width="39.9" height="58.8"/>
	<rect x="208" y="127.4" class="st19" width="39.9" height="2.1"/>
	<rect x="227.1" y="99.3" class="st19" width="1.8" height="58.8"/>
	<rect x="208" y="99.3" class="st20" width="39.9" height="58.8"/>
	<rect x="196.4" y="87.9" class="st21" width="63.2" height="1.8"/>
</g>
<g id="окно1_5_">
	<rect x="243.1" y="303.5" class="st22" width="51.3" height="2.2"/>
	<rect x="243.7" y="305.7" class="st23" width="50" height="5.5"/>
	<rect x="243.7" y="231.7" class="st24" width="50" height="1.4"/>
	<rect x="250.2" y="237.7" class="st25" width="37.2" height="65.8"/>
	<rect x="245.2" y="233.4" class="st25" width="4.9" height="71.1"/>
	<rect x="287.3" y="233.4" class="st25" width="4.9" height="71.1"/>
	<rect x="250.2" y="233.4" class="st26" width="37.2" height="4.3"/>
	<rect x="251.4" y="240.3" class="st27" width="34.6" height="60.6"/>
	<rect x="252.2" y="240.8" class="st28" width="33.1" height="59"/>
	<rect x="267.6" y="242.2" class="st19" width="2.5" height="56.5"/>
	<rect x="252.8" y="241.7" class="st29" width="31.9" height="56.9"/>
	<rect x="242.7" y="229.6" class="st30" width="52.3" height="1.8"/>
</g>
</svg>
