<?xml version="1.0" encoding="utf-8"?>
<!-- Generator: Adobe Illustrator 24.2.1, SVG Export Plug-In . SVG Version: 6.00 Build 0)  -->
<svg version="1.1" id="Слой_1" xmlns="http://www.w3.org/2000/svg" xmlns:xlink="http://www.w3.org/1999/xlink" x="0px" y="0px"
	 viewBox="0 0 400 400" style="enable-background:new 0 0 400 400;" xml:space="preserve">
<style type="text/css">
	.st0{fill:#9C9B9B;}
	.st1{fill:#575756;}
	.st2{clip-path:url(#SVGID_3_);}
	.st3{fill:#D8D8D8;stroke:#1D1D1B;stroke-width:0.5578;stroke-miterlimit:10;}
	.st4{opacity:0.4;fill:#575756;stroke:#1D1D1B;stroke-width:0.6272;stroke-miterlimit:10;enable-background:new    ;}
	.st5{fill:#B1B1B1;}
	.st6{fill:none;stroke:#1D1D1B;stroke-width:0.5578;stroke-miterlimit:10;}
	.st7{fill:#9C9B9B;stroke:#1D1D1B;stroke-width:0.7065;stroke-miterlimit:10;}
	.st8{fill:#B1B1B1;stroke:#1D1D1B;stroke-width:1.072;stroke-miterlimit:10;}
	.st9{fill:#B1B1B1;stroke:#1D1D1B;stroke-width:0.5507;stroke-miterlimit:10;}
	.st10{fill:#868686;stroke:#1D1D1B;stroke-width:0.6885;stroke-miterlimit:10;}
	.st11{fill:#6F6F6E;stroke:#1D1D1B;stroke-width:0.6885;stroke-miterlimit:10;}
	.st12{fill:#9C9B9B;stroke:#1D1D1B;stroke-width:0.6777;stroke-miterlimit:10;}
	.st13{fill:#9C9B9B;stroke:#1D1D1B;stroke-width:0.6655;stroke-miterlimit:10;}
	.st14{fill:#9C9B9B;stroke:#1D1D1B;stroke-width:0.6191;stroke-miterlimit:10;}
	.st15{fill:#D9D9D9;}
	.st16{fill:none;stroke:#1D1D1B;stroke-width:0.6191;stroke-miterlimit:10;}
	.st17{fill:#9C9B9B;stroke:#1D1D1B;stroke-width:0.6295;stroke-miterlimit:10;}
	.st18{fill:#9C9B9B;stroke:#1D1D1B;stroke-width:0.6424;stroke-miterlimit:10;}
	.st19{fill:#B1B1B1;stroke:#1D1D1B;stroke-width:0.9746;stroke-miterlimit:10;}
	.st20{fill:#B1B1B1;stroke:#1D1D1B;stroke-width:0.5007;stroke-miterlimit:10;}
	.st21{fill:#868686;stroke:#1D1D1B;stroke-width:0.6259;stroke-miterlimit:10;}
	.st22{fill:#6F6F6E;stroke:#1D1D1B;stroke-width:0.6259;stroke-miterlimit:10;}
	.st23{fill:#9C9B9B;stroke:#1D1D1B;stroke-width:0.6162;stroke-miterlimit:10;}
	.st24{fill:#9C9B9B;stroke:#1D1D1B;stroke-width:0.6051;stroke-miterlimit:10;}
	.st25{fill:#9C9B9B;stroke:#1D1D1B;stroke-width:0.5628;stroke-miterlimit:10;}
	.st26{fill:none;stroke:#1D1D1B;stroke-width:0.5628;stroke-miterlimit:10;}
	.st27{fill:#9C9B9B;stroke:#1D1D1B;stroke-width:0.5723;stroke-miterlimit:10;}
	.st28{fill:#1D1D1B;}
	.st29{opacity:0.4;fill:none;stroke:#000000;stroke-width:0.5186;stroke-miterlimit:10;enable-background:new    ;}
</style>
<g>
	<rect x="32.1" y="374.2" class="st0" width="335.3" height="10.2"/>
	<path class="st1" d="M366.5,375.1v8.4H33v-8.4H366.5 M368.3,373.3h-337v12h337V373.3L368.3,373.3z"/>
</g>
<g>
	<g>
		<g>
			<g>
				<defs>
					<path id="SVGID_2_" d="M22.5,186.1c24.3-21.8,43-40.6,55.5-53.2c29.7-30.4,65.5-54.9,92.6-87.7c4.7-5.7,15.3-19,28.8-18.3
						c10.9,0.6,18.5,9.8,21.3,13.1c23.6,28.2,54.9,48.8,81.2,74.5c35,34.3,80.5,70.3,78.9,72.4c-0.2,0.3-1.4-0.1-7.8,0
						c-0.2,0-0.7,0-1.1,0c0,62.2,0,124.3,0,186.5c-114.7-0.1-229.3-0.3-344-0.4c-0.6-112.6-0.8-183.4-0.4-185.2c0-0.1,0.1-0.6-0.1-1
						C26.5,185.7,24.2,185.8,22.5,186.1z"/>
				</defs>
				<clipPath id="SVGID_3_">
					<use xlink:href="#SVGID_2_"  style="overflow:visible;"/>
				</clipPath>
				<g transform="matrix(1 0 0 1 0 5.960464e-08)" class="st2">
				</g>
			</g>
		</g>
	</g>
</g>
<g id="стена1_1_">
	<path id="SVGID_1_" class="st3" d="M22.5,186.1c24.3-21.8,43-40.6,55.5-53.2c29.7-30.4,65.5-54.9,92.6-87.7
		c4.7-5.7,15.3-19,28.8-18.3c10.9,0.6,18.5,9.8,21.3,13.1c23.6,28.2,54.9,48.8,81.2,74.5c35,34.3,80.5,70.3,78.9,72.4
		c-0.2,0.3-1.4-0.1-7.8,0c-0.2,0-0.7,0-1.1,0c0,62.2,0,124.3,0,186.5c-114.7-0.1-229.3-0.3-344-0.4c-0.6-112.6-0.8-183.4-0.4-185.2
		c0-0.1,0.1-0.6-0.1-1C26.5,185.7,24.2,185.8,22.5,186.1z"/>
</g>
<rect x="365.6" y="186.8" class="st4" width="6.1" height="186.5"/>
<rect x="28.2" y="186.8" class="st4" width="6.1" height="186.5"/>
<g>
	
		<rect x="-27.8" y="97.2" transform="matrix(0.7636 -0.6457 0.6457 0.7636 -41.5594 90.5149)" class="st0" width="261.2" height="9.6"/>
	
		<rect x="-22.8" y="103.6" transform="matrix(0.7636 -0.6457 0.6457 0.7636 -44.2068 95.133)" class="st5" width="261.2" height="8.7"/>
	<g>
		<g>
			<line class="st6" x1="22.5" y1="186.1" x2="199.4" y2="36.2"/>
		</g>
	</g>
</g>
<g>
	<path class="st0" d="M393.2,189.8C328.7,134.9,264.2,80,199.7,25.1c0-3.7,0-7.3-0.1-10.9l199.8,168.2L393.2,189.8z"/>
	<path class="st5" d="M388.4,195.3c-63-53-126-106.1-189.1-159.1c0.1-3.7,0.2-7.3,0.3-11.1C264.5,79.7,329.2,134.2,394,188.8
		L388.4,195.3z"/>
	<g>
		<g>
			<line class="st6" x1="378.2" y1="186.8" x2="199.4" y2="36.2"/>
		</g>
	</g>
</g>
<g id="окно1_4_">
	<rect x="134.1" y="173.3" class="st7" width="64.2" height="2.3"/>
	<rect x="134.9" y="175.7" class="st8" width="62.7" height="5.7"/>
	<rect x="134.9" y="99.3" class="st9" width="62.7" height="1.4"/>
	<rect x="143" y="105.3" class="st10" width="46.6" height="68.1"/>
	<rect x="136.8" y="100.8" class="st11" width="6.2" height="73.6"/>
	<rect x="189.6" y="100.8" class="st11" width="6.2" height="73.6"/>
	<rect x="143" y="100.8" class="st12" width="46.6" height="4.4"/>
	<rect x="144.6" y="107.9" class="st13" width="43.4" height="62.8"/>
	<rect x="146.3" y="109.6" class="st14" width="39.9" height="58.9"/>
	<rect x="146.3" y="137.7" class="st15" width="39.9" height="2.2"/>
	<rect x="165.4" y="109.8" class="st15" width="1.9" height="58.7"/>
	<rect x="146.3" y="109.3" class="st16" width="39.9" height="58.9"/>
	<rect x="133.6" y="96.8" class="st17" width="65.4" height="1.9"/>
</g>
<g id="окно1_6_">
	<rect x="249.3" y="320" class="st18" width="53.1" height="2.3"/>
	<rect x="249.9" y="322.3" class="st19" width="51.8" height="5.7"/>
	<rect x="249.9" y="246" class="st20" width="51.8" height="1.4"/>
	<rect x="256.6" y="251.9" class="st21" width="38.5" height="68.1"/>
	<rect x="251.5" y="247.5" class="st22" width="5.1" height="73.6"/>
	<rect x="295.1" y="247.5" class="st22" width="5.1" height="73.6"/>
	<rect x="256.6" y="247.5" class="st23" width="38.5" height="4.4"/>
	<rect x="257.9" y="254.5" class="st24" width="35.8" height="62.8"/>
	<rect x="259.4" y="256.2" class="st25" width="33" height="58.9"/>
	<rect x="274.7" y="256.5" class="st15" width="2.6" height="58.6"/>
	<rect x="259.4" y="256" class="st26" width="33" height="58.9"/>
	<rect x="248.8" y="243.5" class="st27" width="54.1" height="1.9"/>
</g>
<g id="окно1_5_">
	<rect x="200.9" y="173.3" class="st7" width="64.2" height="2.3"/>
	<rect x="201.7" y="175.7" class="st8" width="62.7" height="5.7"/>
	<rect x="201.7" y="99.3" class="st9" width="62.7" height="1.4"/>
	<rect x="209.8" y="105.3" class="st10" width="46.6" height="68.1"/>
	<rect x="203.5" y="100.8" class="st11" width="6.2" height="73.6"/>
	<rect x="256.4" y="100.8" class="st11" width="6.2" height="73.6"/>
	<rect x="209.8" y="100.8" class="st12" width="46.6" height="4.4"/>
	<rect x="211.3" y="107.9" class="st13" width="43.4" height="62.8"/>
	<rect x="213.1" y="109.6" class="st14" width="39.9" height="58.9"/>
	<rect x="213.1" y="137.7" class="st15" width="39.9" height="2.2"/>
	<rect x="232.1" y="109.8" class="st15" width="1.9" height="58.7"/>
	<rect x="213.1" y="109.3" class="st16" width="39.9" height="58.9"/>
	<rect x="200.2" y="96.8" class="st17" width="65.4" height="1.9"/>
</g>
<g>
	<rect x="77.1" y="227" class="st15" width="58.7" height="143.4"/>
	<path class="st28" d="M134.9,227.8v141.7h-57V227.8H134.9 M136.6,226.2h-1.7h-57h-1.7v1.7v141.7v1.7h1.7h57h1.7v-1.7V227.8V226.2
		L136.6,226.2z"/>
</g>
<rect x="76.1" y="370.6" class="st28" width="60.7" height="1.6"/>
<g>
	<g>
		<path class="st28" d="M82.1,301.9c1.8,0,1.8-2.8,0-2.8C80.4,299,80.2,301.9,82.1,301.9L82.1,301.9z"/>
	</g>
</g>
<g>
	<g>
		<path class="st28" d="M83.2,299.9c-0.1-0.1-0.1-0.3-0.1-0.4C83.1,299.6,83.1,299.7,83.2,299.9c-0.1-0.2-0.1-0.4-0.1-0.6
			c0,0.1,0,0.2,0,0.3c0-0.2,0.1-0.3,0.1-0.6c0,0.1-0.1,0.2-0.1,0.3c0.1-0.1,0.1-0.3,0.2-0.4c-0.1,0.1-0.1,0.2-0.2,0.3
			c0.1-0.1,0.2-0.2,0.3-0.3c-0.1,0.1-0.2,0.1-0.3,0.2c0.1-0.1,0.2-0.1,0.3-0.2c-0.1,0-0.2,0.1-0.3,0.1c0.2-0.1,0.3-0.1,0.6-0.1
			c-0.1,0-0.2,0-0.3,0c0.2,0,0.3,0,0.6,0c-0.1,0-0.2,0-0.3,0c0.2,0,0.3,0.1,0.6,0.1c-0.1,0-0.2-0.1-0.3-0.1c0.1,0.1,0.3,0.1,0.4,0.2
			c-0.1-0.1-0.2-0.1-0.3-0.2l0.1,0.1c0.2,0.2,0.7,0.4,1,0.4c0.3,0,0.8-0.1,1-0.4c0.2-0.2,0.4-0.6,0.4-1c0-0.3-0.1-0.8-0.4-1
			c-0.9-0.8-2.1-1.1-3.3-0.8c-1.1,0.3-2,1.2-2.3,2.4c-0.1,0.6-0.1,1.3,0.1,1.9c0.1,0.3,0.3,0.7,0.7,0.9c0.3,0.2,0.8,0.2,1.1,0.1
			s0.7-0.3,0.9-0.7C83.2,300.7,83.4,300.2,83.2,299.9L83.2,299.9z"/>
	</g>
</g>
<circle class="st6" cx="82.1" cy="304.8" r="1.2"/>
<line class="st29" x1="34.6" y1="197.2" x2="365.6" y2="197.2"/>
</svg>
