<?xml version="1.0" encoding="utf-8"?>
<!-- Generator: Adobe Illustrator 24.2.1, SVG Export Plug-In . SVG Version: 6.00 Build 0)  -->
<svg version="1.1" id="Слой_1" xmlns="http://www.w3.org/2000/svg" xmlns:xlink="http://www.w3.org/1999/xlink" x="0px" y="0px"
	 viewBox="0 0 400 400" style="enable-background:new 0 0 400 400;" xml:space="preserve">
<style type="text/css">
	.st0{fill:#575756;}
	.st1{fill:#D8D8D8;}
	.st2{fill:#E5E5E5;}
	.st3{fill:#BABABA;}
	.st4{fill:#A0A0A0;}
	.st5{fill:#D1D1D1;}
	.st6{fill:#B2B2B2;}
	.st7{fill:#999999;}
	.st8{fill:#9D9D9C;}
	.st9{fill:#C6C6C6;}
	.st10{fill:#494949;stroke:#494949;stroke-width:1.6006;stroke-miterlimit:10;}
	.st11{fill:none;stroke:#000000;stroke-width:1.6006;stroke-linecap:round;stroke-linejoin:round;stroke-miterlimit:10;}
	.st12{fill:none;stroke:#000000;stroke-width:0.8003;stroke-linecap:round;stroke-linejoin:round;stroke-miterlimit:10;}
	.st13{fill:#FFFFFF;stroke:#FFFFFF;stroke-width:0.8003;stroke-linecap:round;stroke-linejoin:round;stroke-miterlimit:10;}
	.st14{fill:none;stroke:#DADADA;stroke-width:1.2005;stroke-linecap:round;stroke-linejoin:round;stroke-miterlimit:10;}
	.st15{fill:none;stroke:#000000;stroke-width:1.2005;stroke-linecap:round;stroke-linejoin:round;stroke-miterlimit:10;}
	.st16{fill:#DADADA;}
	.st17{fill:#494949;stroke:#1D1D1B;stroke-width:1.6006;stroke-linecap:round;stroke-linejoin:round;stroke-miterlimit:10;}
	.st18{fill:#EDEDED;}
	.st19{fill:#636363;stroke:#1D1D1B;stroke-width:1.6006;stroke-linecap:round;stroke-linejoin:round;stroke-miterlimit:10;}
	.st20{fill:#3C3C3B;}
	.st21{fill:#DADADA;stroke:#706F6F;stroke-width:0.2401;stroke-miterlimit:10;}
	.st22{fill:#DADADA;stroke:#706F6F;stroke-width:0.2483;stroke-miterlimit:10;}
	.st23{opacity:0.6;fill:none;stroke:#1D1D1B;stroke-width:0.8003;stroke-miterlimit:10;}
	.st24{fill:none;stroke:#DADADA;stroke-width:0.8003;stroke-linecap:round;stroke-linejoin:round;stroke-miterlimit:10;}
	.st25{fill:#9D9D9C;stroke:#575756;stroke-width:0.777;stroke-linecap:round;stroke-linejoin:round;stroke-miterlimit:10;}
	.st26{fill:#9D9D9C;stroke:#575756;stroke-width:0.7971;stroke-linecap:round;stroke-linejoin:round;stroke-miterlimit:10;}
	.st27{fill:#878787;stroke:#575756;stroke-width:0.7825;stroke-linecap:round;stroke-linejoin:round;stroke-miterlimit:10;}
	.st28{fill:#9D9D9C;stroke:#575756;stroke-width:0.7825;stroke-linecap:round;stroke-linejoin:round;stroke-miterlimit:10;}
	.st29{fill:#B2B2B2;stroke:#575756;stroke-width:0.7825;stroke-linecap:round;stroke-linejoin:round;stroke-miterlimit:10;}
	.st30{fill:none;stroke:#575756;stroke-width:0.2401;stroke-linecap:round;stroke-miterlimit:10;}
	.st31{fill:none;stroke:#575756;stroke-width:0.4002;stroke-linecap:round;stroke-miterlimit:10;}
	.st32{fill:#9D9D9C;stroke:#575756;stroke-width:0.7477;stroke-linecap:round;stroke-linejoin:round;stroke-miterlimit:10;}
	.st33{fill:#DADADA;stroke:#706F6F;stroke-width:0.2986;stroke-miterlimit:10;}
	.st34{fill:#2D2D2D;}
	.st35{fill:#706F6F;}
	.st36{fill:#353535;}
	.st37{fill:#686868;}
	.st38{fill:#878787;}
	.st39{fill:#F6F6F6;}
	.st40{fill:#757575;stroke:#686868;stroke-width:0.7495;stroke-miterlimit:10;}
	.st41{fill:#757575;stroke:#686868;stroke-width:0.6431;stroke-miterlimit:10;}
	.st42{fill:#DADADA;stroke:#EDEDED;stroke-width:0.3146;stroke-miterlimit:10;}
	.st43{fill:#757575;stroke:#686868;stroke-width:0.8003;stroke-miterlimit:10;}
	.st44{fill:#757575;stroke:#686868;stroke-width:0.6867;stroke-miterlimit:10;}
	.st45{fill:#DADADA;stroke:#EDEDED;stroke-width:0.3359;stroke-miterlimit:10;}
	.st46{fill:#706F6F;stroke:#575756;stroke-width:0.1889;stroke-miterlimit:10;}
	.st47{fill:#878787;stroke:#9D9D9C;stroke-width:0.1725;stroke-miterlimit:10;}
	.st48{fill:#706F6F;stroke:#575756;stroke-width:0.1723;stroke-miterlimit:10;}
	.st49{fill:#878787;stroke:#9D9D9C;stroke-width:0.1574;stroke-miterlimit:10;}
	.st50{opacity:0.38;fill:none;stroke:#1D1D1B;stroke-width:1.2005;stroke-linecap:round;stroke-miterlimit:10;}
	.st51{fill:#DADADA;stroke:#575756;stroke-width:0.8003;stroke-linecap:round;stroke-miterlimit:10;}
	.st52{fill:none;stroke:#F6F6F6;stroke-width:0.8003;stroke-linecap:round;stroke-miterlimit:10;}
	.st53{fill:none;stroke:#575756;stroke-width:0.8003;stroke-linecap:round;stroke-miterlimit:10;}
</style>
<g>
	<path class="st0" d="M328.4,227.9c-44.6,0.1-89.9-0.2-90-2.3c0-0.2,0.6-0.5,1.8-0.8c10.5-2.7,48.8-4.2,100.6-3.8
		c14.5,0.5,24.9,3.7,25.8,8.8c0.3,1.4-0.2,3.3-1.4,4.3c-3.7,3.2-11.5-3.2-24.9-5.4C335.2,227.8,330.8,227.8,328.4,227.9z"/>
	<path class="st0" d="M358.9,231.3c-6-2.7-12.1-5.5-18.1-8.2c13.3,3.2,26.5,6.4,39.8,9.5c-4.2,0.2-8.5,0.4-12.7,0.6
		C364.9,232.5,361.9,231.9,358.9,231.3z"/>
	<g id="стены">
		<path class="st1" d="M66.9,282.2h-28v-91.9c9.4-0.3,18.7-0.6,28.1-0.9C67,220.3,66.9,251.2,66.9,282.2z"/>
		<path class="st2" d="M151.7,283.8c-28.2,0-56.5,0-84.7,0.1c0-82.2,0-118.5,0-118.7c0,0,0-0.3,0-0.3c0,0,0-0.3,0-0.3
			c0,0,0-0.2,0-0.2c0,0,0-0.3,0-0.3c0,0,0-0.3,0-0.3c1.3-1.3,3.4-3.5,5.6-6.3c2.1-2.6,3.1-4.2,5.5-7.5c2.6-3.6,3.6-4.7,6.3-8.2
			c6.3-8.2,6.8-10,12.7-17.8c0.1-0.2,7.2-10.8,8.6-10.1c0.1,0,0.3,0.2,0.5,0.4c0.8,0.7,1.3,1.3,1.4,1.5c1.2,1.6,2.7,3,4.1,4.5
			c6.5,7.3,9.7,10.9,12,13.2c0,0,10.6,10.6,17.6,19.3c0.1,0.2,0.4,0.5,0.5,1c0,0.1,0,0.2,0,0.5c0,0,0,0.3,0,0.6
			c0,0-0.4,17.6-0.1,17.6c0,0,0.1,0,0.1,0l0,0c0,0,0,0.1,0,0.1c0,0,0-0.1,0.1-0.1c0,0,0.1,0,0.1-0.1c0,0,0,0,0.1,0
			c0.1,0,0.1-0.1,0.2-0.1c0.1,0,0.2,0.2,0.3,0.2c0.1,0,0-0.1,0.1-0.2c0.1,0,0.3,0.1,0.3,0.1c0.2,0.2,2.5,0.1,8.9-0.4
			C151.7,209.3,151.7,246.6,151.7,283.8z"/>
		<path class="st3" d="M176.4,291c-8.3,0.6-16.5,1.2-24.8,1.7c0-39.8,0-79.6,0-119.3c8.3,1.8,16.6,3.5,24.9,5.3
			C176.5,216.1,176.5,253.6,176.4,291z"/>
		<path class="st4" d="M176.5,290.8c-5.5,0.3-10.9,0.7-16.4,1c0-23.1,0-46.2,0-69.2c5.5,1,11,2.1,16.5,3.1
			C176.6,247.4,176.5,269.1,176.5,290.8z"/>
		<path class="st5" d="M239.6,216.4c22.5-1.4,45-2.9,67.4-4.3c0.9-2.7,2-6.6,2.6-11.5c0.7-5.9,0.4-10.6-1-21.1
			c-1.2-8.9-1.9-12.7-4-25.7c-2.2-13.7-2.3-15.2-3.3-20c-1.8-8.1-3.8-14.6-5.2-19c-1-3-2.1-5.2-2.9-6.7c-1.4-2.5-2.6-3.9-2.3-5.8
			c0.3-2,1.8-2.9,1.7-3.1c-0.3-0.4-6.3,4.4-12.1,9.8c-2,1.9-4.1,3.9-6.4,6.6c-1.3,1.5-2.4,2.9-3.2,3.9c-0.2,0.5-0.4,1.1-0.6,1.7
			c-0.1,0.4-0.3,1-0.6,1.7c0,0-0.3,0.9-0.6,1.8c-1.4,4.1-2.7,8.3-2.7,8.3c-3.1,9.7-4.7,14.6-5,15c-0.8,1.4-2.4,3.8-2.8,7.2
			c-0.1,1-0.1,2.2-0.1,3.1c0,2.2,0.1,2.6,0.2,5.6c0,0,0.1,3.2,0.1,6.6c0,0.4,0,0.9,0,0.9c0,0.4,0,0.6,0,0.9c0,0.5,0,0.7,0,0.7
			c-0.2,1.3-8.7,1.2-8.7,1.2c-4.3,0-6.2-0.5-8.4,0.8c0,0-0.9,0.5-1.7,1.4C235.8,180.3,239.3,214.1,239.6,216.4z"/>
		<path class="st6" d="M240.2,225.7c-21.2,0-42.4,0-63.6,0c0-17,0-33.9,0-50.9c21.3-0.6,42.5-1.2,63.8-1.8
			C240.3,190.5,240.2,208.1,240.2,225.7z"/>
		<path class="st7" d="M240.2,285.3c-21.2,0-42.5,0-63.7,0c0-19.9,0-39.9,0-59.8c21.3-0.7,42.6-1.4,63.9-2.2
			C240.3,244,240.2,264.7,240.2,285.3z"/>
		<path class="st8" d="M240.3,285.3c-8.4,0-16.8,0-25.3,0c0-31,0-62,0-93c8.5,0.1,16.9,0.1,25.4,0.2
			C240.4,223.4,240.3,254.4,240.3,285.3z"/>
		<rect x="238.4" y="225.6" class="st2" width="93.7" height="73.8"/>
		<path class="st5" d="M332.2,285.7c11.9-0.6,23.8-1.2,35.7-1.8c-0.1-16.9-0.3-33.9-0.4-50.8c-11.8-2.5-23.5-5-35.3-7.4
			C332.2,245.6,332.2,265.6,332.2,285.7z"/>
	</g>
	<g id="углы_стен">
		<path class="st6" d="M41.8,280.8h-2.9c0-30.1,0-60.3,0-90.4c1,0,1.9-0.1,2.9-0.1C41.8,220.5,41.8,250.7,41.8,280.8z"/>
		<path class="st6" d="M68,280.8h-1.2c0-34.2,0-68.3,0-102.5c0.4,0,0.8-0.1,1.2-0.1C68,212.4,68,246.6,68,280.8z"/>
		<path class="st6" d="M69.5,283H68c0-39.9,0-79.8,0-119.7c0.5-0.5,1-1.1,1.4-1.6C69.5,202.2,69.5,242.6,69.5,283z"/>
		<path class="st6" d="M150,173.1c0.6,0,1.1,0.1,1.7,0.1v110.6H150C150,246.9,150,210,150,173.1z"/>
		<rect x="151.7" y="173.2" class="st4" width="1.3" height="110.6"/>
		<rect x="237.8" y="224.9" class="st6" width="2.6" height="60.7"/>
		<rect x="237.8" y="175.2" class="st6" width="2.6" height="60.7"/>
		<rect x="329.8" y="225.6" class="st6" width="2.6" height="60.4"/>
		<path class="st9" d="M332.3,225.6c0.9,0.2,1.7,0.4,2.6,0.6c0,19.9,0,39.9,0,59.8h-2.6C332.4,265.9,332.4,245.7,332.3,225.6z"/>
		<path class="st9" d="M365.2,232.6c0.9,0.2,1.8,0.4,2.7,0.6c0,18.4,0,36.8,0,55.2h-2.6C365.2,269.7,365.2,251.1,365.2,232.6z"/>
	</g>
	<path class="st6" d="M66.8,180.4c-16.6,1.1-33.2,2.2-49.8,3.3c0,1.6-0.1,3.2-0.1,4.9c16.7-1,33.3-2.1,50-3.1
		C66.8,183.8,66.8,182.1,66.8,180.4z"/>
	<g id="контур_крыши">
		<path class="st10" d="M70.6,134.1c-2,1.7-4.1,4.3-6.3,6.5c-2,1.9-2.6,2.1-5.3,4.3c-3.8,3.1-5.8,5.3-8.9,8.5
			c-1.1,1.1-4.8,4.5-12.3,11.4c-10,9.2-19.3,17.7-19.3,17.7c0,0,0.7,0.2,0.7,0.2c1.9,0.6,5.1-0.4,5.1-0.4c0.8-0.2,0.1,0,11.2-0.7
			c3.1-0.2,2.9-0.2,3.7-0.2c2.9-0.1,4.6-0.2,7.2-0.2c0,0,3.3-0.1,7.2-0.3c8.5-0.4,12.8-0.6,13.1-1.6c0.9-2.9-16.6-9-15.5-14.1
			c0.2-1,1.1-1.4,1.9-2.2c4.1-4.1,6.1-7.7,9.6-13c5.8-8.7,8.7-13.1,13.1-17.6c4-4.1,6.4-5.6,10.7-10.9c3.1-3.8,4.7-5.7,5.3-7
			c0,0,2.7-5.3,5.8-8.3c0.3-0.3,0.6-0.6,1.1-0.6c0.4,0,0.8,0.1,1.2,0.4c0.8,0.4,1.3,0.9,1.4,1.1c0.8,0.8,1.2,1.6,1.3,1.7
			c1.1,2,5.4,5,6.9,6.1c3.3,2.5,2.6,3.5,7.3,8.7c3,3.4,5.3,5.2,7.8,7.4c3.8,3.4,11.5,10.2,18,19.2c0,0,7.4,10.3,12.8,16.3
			c0.7,0.8,2.5,2.7,5.4,3.6c1.7,0.5,3,0.4,4.2,0.4c4.7-0.1,6.2,1.5,10.6,2.3c3.5,0.6,4.1-0.1,12.5-0.9c4.2-0.4,3.8-0.2,12.6-0.7
			c2.9-0.2,10.2-0.6,18.9-1.4c15.7-1.4,14.9-1.9,17.6-1.6c0.4,0.1,4.1-0.1,11.5-0.5c0.1,0,0.3,0,0.5-0.1c0.6-0.3,0.8-1,0.8-1.2
			c0.5-1.8,1.8-3.3,2.2-5.1c1.4-5.2,3.6-10,5.2-15.1c3.4-10.4,3.9-8,6.2-15.9c0,0,1.6-5.6,6.4-15.6c0.1-0.2,0.3-0.6,0.6-1
			c0.9-1,1.8-1,2.8-1.6c0.8-0.5,0.8-0.8,2-2.1c0.7-0.8,1.3-1.3,3.1-2.9c3.3-2.9,6.2-6.1,9.7-8.7c1.6-1.1,3.5-2.4,3.6-4.1
			c0-0.2,0-1.2-0.5-1.6c-0.6-0.4-1.4,0-1.7,0.2c-2.6,1.1-5.6,0.8-8.4,1.4c-6.2,1.5-28.1,3.4-28.1,3.4c-28.3,2.5-48,6.5-74.4,9
			c-2,0.2-5.7,0.5-11.1,1.1c-10.5,1.1-11.3,1.5-20.6,2.5c-3.4,0.4-7.6,0.8-10.6,1.3c-1.2,0.2-2.5,0.2-3.8,0.5
			c-0.6,0.2-1.7,0.5-3.2,0.3c0,0-0.2,0-0.5-0.1c-2.4-0.4-4.5-1.8-4.5-1.8c-4.7-2.9-19.9-5.4-23.8-9.2c-0.3-0.2-1.1-1.1-1.9-0.9
			c-0.9,0.2-1.4,1.4-1.7,2c-0.2,0.4-1.6,2.2-4.5,5.8c-3.2,4-4,3.5-6.7,7.2c-1.8,2.5-1.1,2.2-3,4.9c-2.8,3.9-4.7,4.8-6.8,8
			c-0.3,0.4-1.1,1.6-2.3,2.9c-0.6,0.6-1.2,1.3-1.4,1.4C71.5,133.4,70.8,133.9,70.6,134.1z"/>
		<line class="st11" x1="160.1" y1="167.1" x2="98.7" y2="99.4"/>
		<line class="st11" x1="129.4" y1="111.5" x2="98.7" y2="99.4"/>
		<line class="st11" x1="292.3" y1="92.2" x2="129.4" y2="111.5"/>
		<line class="st11" x1="248.6" y1="165.8" x2="269.1" y2="114"/>
		<line class="st11" x1="292.2" y1="92.4" x2="269.1" y2="114"/>
		<line class="st11" x1="248.6" y1="165.8" x2="176.8" y2="170.8"/>
		<line class="st11" x1="160.1" y1="167.1" x2="176.8" y2="170.8"/>
		<path class="st11" d="M66.6,180.4c-16.9,1.1-33.7,2.2-50.6,3.3"/>
		<line class="st11" x1="75.4" y1="128.7" x2="16.1" y2="183.8"/>
		<line class="st12" x1="74.9" y1="128.5" x2="98.4" y2="99"/>
		<line class="st12" x1="75.4" y1="129.1" x2="98.4" y2="99"/>
	</g>
	<g id="свес">
		<path class="st0" d="M38,190.5c9.6-0.3,19.2-0.6,28.8-0.9c0-1.8,0-3.7,0-5.5c-16.7,1.5-33.3,3-50,4.5
			C23.9,189.2,30.9,189.8,38,190.5z"/>
		<path class="st0" d="M176.6,180.2c27.1-2.1,54.2-4.2,81.3-6.3c-2.7-1.4-5.4-2.8-8.1-4.2c-24.4,1.8-48.7,3.5-73.1,5.3
			C176.6,176.8,176.6,178.5,176.6,180.2z"/>
		<path class="st0" d="M176.6,180.2c-9.4-2.5-18.8-5.1-28.2-7.6c3.9,0,7.7,0,11.6,0c5.6,0.8,11.1,1.7,16.7,2.5
			C176.6,176.8,176.6,178.5,176.6,180.2z"/>
	</g>
	<path class="st13" d="M98.3,100.3c-1.1,0.1-1.8,1.3-2.3,2.1c-2,3.3-4.4,6.2-6.4,9.5c-0.4,0.6-2.2,3.1-5.9,8
		c-2.6,3.6-3.6,4.8-7.3,9.7c-1.5,2-2.5,3.4-4.1,5.6c-4.4,5.9-5.6,7.6-8.7,11.8c-7.1,9.6-16.7,22.4-17.2,23c-0.1,0.1-0.4,0.5-0.8,1
		c-0.5,0.6-0.7,0.9-0.7,1c-0.3,0.7,0,0.9-0.1,2.8c0,0.8-0.1,1.2-0.1,1.3c-0.1,0.6-0.2,1,0,1.2c0,0,0.1,0.1,0.6,0.2
		c0.4,0.1,0.6,0.1,1.1,0.1c0.7-0.1,1,0.1,2.3,0.1c2,0.1,2.1-0.2,4.1-0.2c0.7,0,0.4,0.1,2,0.2c3.1,0.2,1.9,0,3.1,0.1
		c0.3,0,0.7,0.1,1.2-0.1c0.2-0.1,0.6-0.2,0.8-0.5c0.3-0.4,0.2-0.9,0.1-1.7c0,0-0.1-0.5-0.2-2.2c-0.1-1,0-1,0-2.8
		c0-1.6-0.1-1.4,0-2.4c0-1.7,0.2-2,0.3-3.4c0-1.3-0.3-1.6-0.1-2.6c0.1-0.6,0.3-1.1,0.5-1.9c0.1-0.3,0.4-1.3,0.9-2.2
		c0.7-1.3,1.4-2.1,2.1-3c1.2-1.5,2.3-3.2,3.5-4.7c1-1.3,2-2.7,3-4c4.9-6.6,26-36.4,26.7-37.4c0.2-0.2,0.4-0.6,1-1.3
		c0.3-0.4,0,0.1,0.5-0.7c0.5-0.6,0.5-0.7,0.7-0.7c0.2,0,0.4,0.1,0.9,0.5c0.8,0.7,1.3,1.3,1.5,1.5c0.3,0.4,0.7,0.8,1,1.1
		c1.9,2.2,36.5,40.1,38,41.3c0.1,0.1,0.5,0.4,0.9,0.9c0,0,0.2,0.3,0.3,0.5c0.7,1.8,0.4,5.3,0.4,5.3c0,0.2,0,1.6-0.1,4.5
		c-0.1,6.6,0.2,6.5,0.1,7.3c-0.1,0.6,0.1,1.1,0.1,1.7c0,0.2,0,0.4,0.2,0.6c0.2,0.1,0.4,0.1,0.7,0.1c0.4,0,0.8,0,1.2,0
		c1.9-0.1,14,0,15.8-0.1c0.1,0,0.3,0,0.6,0c0.6,0,0.9,0.2,1.3,0.3c0.6,0.2,1,0.2,1.5,0.2c2.2,0.2,11.5,2.4,14.1,2.6
		c0.3,0,0.6,0,0.6,0c0.5,0,1.4,0,2.3-0.1c1-0.1,1.7-0.2,1.8-0.2c4.3-0.8,24.9-1.7,24.9-1.7c7.1-0.3,12.2-0.9,20.6-1.7
		c7.1-0.7,14.3-0.8,21.3-1.5c0.4,0,0.5,0,0.9,0c0.5,0,0.7,0.1,0.8,0.1c0.4,0.1,0.6,0.3,0.7,0.5c0.4,0.4,0.6,0.3,2,1
		c0.2,0.1,0.7,0.4,1.6,0.8c0.4,0.2,0.9,0.4,1.4,0.7c0.5,0.3,0.8,0.5,1.2,0.5c0.3-0.1,0.4-0.2,0.5-0.3c0.3-0.3,0.3-0.6,0.3-0.9
		c0.1-1.3-0.5-4.6-0.5-6.8c0-1,0.2-0.7,0.2-2c0.1-2.5-0.3-6-0.1-7.3c0.1-0.4,0.2-0.8,0.2-0.8c0.1-0.5,0.3-0.8,0.4-0.9
		c0.4-0.8,0.7-1.6,1-2.5c1.4-3,12.4-32.8,12.7-33.8c0,0,0.1-0.3,0.2-0.5c0.1-0.2,0.2-0.4,0.2-0.4c0.1-0.2,0.3-0.4,0.3-0.4
		c0.4-0.4,0.6-0.8,2.1-2.3c2.1-2.1,9.9-9.8,12.3-12.2c1.1-1.1,2.3-2.2,3.4-3.4c0.7-0.7,0.7-0.8,1-1c0.2-0.2,0.5-0.3,0.8-0.7
		c0.1-0.1,0.2-0.3,0.3-0.6c0.1-0.3,0.2-0.5,0.1-0.8c0-0.2-0.1-0.2-0.3-0.5c-0.3-0.5-0.3-0.7-0.5-0.8c-0.3-0.1-0.8,0.4-0.8,0.5
		c-1.7,1.9-4,3-5.6,5c-3.4,4-8.8,8.3-10.9,9.9c0,0-1.6,1.2-4.6,4.6c-0.3,0.4-0.5,0.8-0.5,0.8c-0.1,0.1-0.1,0.2-0.2,0.6
		c-0.1,0.3-0.2,0.6-0.3,0.9c-0.2,0.5-1.3,3.5-2.6,6.9c-1.9,4.7-4,9.9-7.3,17.9c-1.7,4.4-4.3,10.8-5.1,12.9c-0.1,0.1-0.3,0.6-0.5,1.3
		c-0.3,0.9-0.6,1.5-0.7,1.7c-0.8,2.2-1,2.5-1.7,4.3c-0.5,1.3-1.2,2.5-1.5,3.8c-0.1,0.5-0.2,1.2-0.7,1.6c-0.5,0.4-1.1,0.3-1.8,0.3
		c-1,0-2.1,0.2-3.1,0.2c0,0-20.5,1.4-61.6,4.3c0,0-0.8,0.1-0.8,0.1c0,0-0.5,0-0.5,0c-0.8,0.1-0.8,0.1-0.8,0.1c-0.4,0-0.5,0.1-0.7,0
		c-0.2-0.1-0.2-0.1-0.4-0.2c-0.3,0-0.5,0.1-0.7,0.2c-0.1,0.1-0.4,0.1-1.5-0.1c-0.7-0.2-1.3-0.4-1.3-0.4c-1-0.3-1.2-0.3-2.5-0.7
		c-1.5-0.4-1.8-0.6-3.2-1.1c-3.1-1-7-1.8-7.9-1.7c-0.1,0-0.4,0-0.8-0.1c-0.3-0.1-0.5-0.3-0.6-0.4c-0.8-0.6-1.2-0.9-1.2-1
		c-3.1-2.9-4.1-4.1-4.1-4.1c-1.5-1.7-0.5-0.4-4.9-5.1c-6.6-7.1-13.1-14.4-13.1-14.4c-2.6-2.9-0.7-0.7-16.8-18.3
		c-12.3-13.5-18.5-20.2-18.5-20.3C101.6,103.5,100.1,100.2,98.3,100.3z"/>
	<g id="контур">
		<g>
			<path class="st8" d="M307.2,130.5c-3.2,0-6.5,0-9.7,0c-3.7-9.1-7.3-18.2-11-27.3c2.3-2.3,4.7-4.6,7-6.9
				C298.1,107.7,302.6,119.1,307.2,130.5z"/>
			<path class="st6" d="M316.3,195.8c-3.3,0.4-6.7,0.8-10,1.2c-2.9-22.2-5.8-44.3-8.8-66.5c3.2,0,6.5,0,9.7,0
				C310.2,152.3,313.2,174.1,316.3,195.8z"/>
		</g>
		<line class="st14" x1="60.1" y1="178.3" x2="44.2" y2="178.3"/>
		<line class="st14" x1="44.2" y1="172.1" x2="44.2" y2="178.3"/>
		<line class="st14" x1="60.1" y1="160.6" x2="60.1" y2="178.3"/>
		<line class="st14" x1="44.2" y1="172.1" x2="98.3" y2="99.6"/>
		<line class="st14" x1="60.1" y1="160.6" x2="98.9" y2="106.5"/>
		<line class="st14" x1="98.3" y1="99.3" x2="160.1" y2="167.2"/>
		<line class="st14" x1="98.9" y1="106.5" x2="141.3" y2="152.7"/>
		<line class="st14" x1="141.3" y1="172.1" x2="141.3" y2="152.7"/>
		<line class="st14" x1="160.1" y1="172.1" x2="141.3" y2="172.1"/>
		<line class="st14" x1="160.1" y1="167.2" x2="177.6" y2="171.7"/>
		<line class="st14" x1="177.4" y1="175.2" x2="160.1" y2="172.1"/>
		<line class="st14" x1="177.6" y1="171.7" x2="249.1" y2="167.1"/>
		<line class="st14" x1="177.4" y1="175.2" x2="249.7" y2="169.8"/>
		<line class="st14" x1="258.2" y1="173.6" x2="258.2" y2="155.4"/>
		<line class="st14" x1="249.7" y1="169.8" x2="258.2" y2="173.6"/>
		<line class="st14" x1="286.5" y1="103.2" x2="297.5" y2="130.5"/>
		<line class="st14" x1="292.6" y1="92.5" x2="307.2" y2="130.5"/>
		<line class="st14" x1="297.5" y1="130.5" x2="305.4" y2="193.6"/>
		<path class="st14" d="M307.2,130.5c2.9,21.2,5.9,42.4,8.8,63.7"/>
		<line class="st14" x1="270" y1="114.1" x2="249.1" y2="167.1"/>
		<line class="st14" x1="292.6" y1="92.5" x2="270" y2="114.1"/>
		<line class="st14" x1="258.2" y1="155.4" x2="273" y2="116.7"/>
		<line class="st14" x1="293.5" y1="96.3" x2="273" y2="116.7"/>
	</g>
	<line class="st15" x1="154.5" y1="122.5" x2="129.4" y2="111.5"/>
	<line class="st15" x1="176.9" y1="169.8" x2="154.5" y2="122.5"/>
	<path class="st8" d="M60.1,160.6c2.7,0.9,5.4,1.9,8.2,2.8c12.2-16.8,24.4-33.6,36.7-50.4c-1.9-2-3.8-3.9-5.7-5.9
		C86.2,125,73.1,142.8,60.1,160.6z"/>
	<path class="st6" d="M68,178.2c-2.6,0.2-5.3,0.4-7.9,0.5c0-6.1,0-12.1,0-18.2c2.7,0.9,5.4,1.9,8.2,2.8
		C68.2,168.4,68.1,173.3,68,178.2z"/>
	<g id="козырек">
		<rect x="150.7" y="223.3" class="st16" width="73.9" height="2.2"/>
		<path class="st16" d="M224.6,223.3c0,0.7,0,1.5,0,2.2c5.9-10.9,11.9-21.9,17.8-32.8c0-0.8,0-1.6,0-2.3
			C236.5,201.4,230.6,212.4,224.6,223.3z"/>
		<path class="st17" d="M173.8,192.7c22.8-0.9,45.6-1.8,68.4-2.7c-6.1,11.1-12.1,22.2-18.2,33.3c-24.6,0.1-49.1,0.2-73.7,0.2
			C158.1,213.3,165.9,203,173.8,192.7z"/>
	</g>
	<g id="крыша_гараж">
		<path class="st16" d="M340.8,225.8c-34.7,0-69.3,0-104,0c0-1,0-2.1,0.1-3.1c34.7-0.2,69.3-0.4,104-0.5
			C340.8,223.4,340.8,224.6,340.8,225.8z"/>
		<path class="st18" d="M380.6,232.9c-13.3-2.4-26.5-4.7-39.8-7.1c0-1.2,0.1-2.4,0.1-3.6c13.2,2.6,26.4,5.2,39.7,7.8
			C380.6,230.9,380.6,231.9,380.6,232.9z"/>
		<path class="st17" d="M230.9,222.6c36.7-0.2,73.3-0.3,110-0.5c-3.7-9.2-7.4-18.5-11.1-27.7c-19.3,0.5-38.6,1-57.8,1.5
			C258.2,204.8,244.6,213.7,230.9,222.6z"/>
		<path class="st19" d="M329.8,194.4c3.7,9.2,7.4,18.5,11.1,27.7c14.1,2.8,28.3,5.6,42.4,8.4C365.4,218.5,347.6,206.5,329.8,194.4z"
			/>
	</g>
	<g id="низ_1_">
		<g id="низ">
			<path class="st18" d="M390,296.7c0,0-0.8,0-0.8,0c0,0-0.3,0-0.3,0c-0.3,0-0.4,0-0.4,0c0,0,0,0,0,0c-2,0-4.4-0.7-4.4-0.7
				c-1.4-0.4-1.7-0.3-4.6-0.6c-2.2-0.3-5.9-0.8-12-2c-3.7-0.1-6.7,0.3-8.7,0.7c-0.7,0.2-9,1.9-11.2,1.9c-0.6,0-1.2,0-1.8,0
				c-0.5,0-0.9,0-1.4,0c0,0-2.3,0-2.3,0c-3.2-0.1-106.7-1.9-109-1.9c0,0-1.4,0-1.5,0c-2.3,0-2.2,0-2.3,0c-1.3-0.1-1.4-0.1-1.5,0
				c-0.7,0.7,2.9,4.3,2.1,5.8c-0.5,0.8-2,0.4-6.7,0.1c-3.7-0.2-3.1,0-5.5-0.2c-4.5-0.4-8.3-0.7-9.4-3c-0.2-0.5-0.4-1.3-0.2-2.4
				c-0.2-0.3-0.5-0.6-0.8-0.6c0,0-0.1,0-0.1,0c-1.1,0.1-66.6-1.1-167.9-3c-7.5,2.7-15,5.3-22.5,8c8.7,0.2,21.1,0.4,35.8,0.7
				c37.6,0.8,100.1,2,178.1,4.7c30.5,1,69.5,2.5,114.9,4.5C360.6,304.5,375.3,300.6,390,296.7z"/>
			<path class="st18" d="M160.1,306c-38.8-1.3-77.7-2.6-116.5-3.8c4.8-1.7,9.5-3.4,14.3-5c46.1-0.2,92.2-0.3,138.3-0.5
				C184.2,299.7,172.2,302.9,160.1,306z"/>
			<path class="st18" d="M172.5,296.1c22,1.4,43.9,2.8,65.9,4.2c-4.6,2.2-9.2,4.4-13.8,6.6c-19.8-1.1-39.6-2.2-59.3-3.3
				C167.7,301.2,170.1,298.7,172.5,296.1z"/>
		</g>
		<g id="контур_низ">
			<rect x="167.6" y="284.7" class="st20" width="41.1" height="0.8"/>
			<rect x="165.8" y="285.6" class="st21" width="42.9" height="4.7"/>
			<rect x="163.4" y="290.2" class="st22" width="45.9" height="4.7"/>
			<line class="st23" x1="155.4" y1="294.6" x2="218.2" y2="294.7"/>
			<line class="st23" x1="163.5" y1="289.6" x2="208.9" y2="289.8"/>
			<line class="st23" x1="151.8" y1="299.9" x2="218.2" y2="299.9"/>
			<line class="st24" x1="17.1" y1="298.4" x2="36.4" y2="291.6"/>
			<line class="st24" x1="52.9" y1="299.1" x2="17.1" y2="298.4"/>
			<line class="st24" x1="42.6" y1="302.1" x2="52.9" y2="299.1"/>
			<line class="st24" x1="160.1" y1="306" x2="42.6" y2="302.1"/>
			<line class="st24" x1="166.9" y1="304.1" x2="160.1" y2="306"/>
			<line class="st24" x1="224.6" y1="307" x2="166.9" y2="304.1"/>
			<line class="st24" x1="230.9" y1="304.1" x2="224.6" y2="307"/>
			<line class="st24" x1="347.2" y1="308.4" x2="230.9" y2="304.1"/>
			<line class="st24" x1="390" y1="296.7" x2="347.2" y2="308.4"/>
			<line class="st24" x1="368.1" y1="293.6" x2="390" y2="296.7"/>
		</g>
	</g>
	<g id="цоколь">
		<g id="слив_у_фронтона">
			<path class="st16" d="M39.2,281c9.6,0,19.2,0,28.9,0v2.2c-10.6-0.3-21.1-0.5-31.7-0.8C37.3,281.9,38.2,281.4,39.2,281z"/>
			<path class="st9" d="M151.8,283.2c1.3,0,2.6-0.1,3.9-0.1c0,0.7,0,1.4,0,2.1c-1.3,0.1-2.6,0.1-3.9,0.2
				C151.8,284.6,151.8,283.9,151.8,283.2z"/>
			<rect x="167.6" y="283.6" class="st9" width="41.1" height="1.1"/>
			<rect x="218.1" y="285.3" class="st16" width="33.6" height="2"/>
			<path class="st16" d="M333,287.3c-5.8,0-11.5,0-17.3,0v-2c5.6,0,11.1,0,16.7,0C332.6,286,332.8,286.7,333,287.3z"/>
			<path class="st18" d="M368.7,284.7c-11.9,0.9-23.8,1.7-35.7,2.6c-0.2-0.7-0.4-1.3-0.6-2c12.1-0.7,24.2-1.4,36.3-2.1
				C368.7,283.7,368.7,284.2,368.7,284.7z"/>
		</g>
		<rect x="36.4" y="282.4" class="st25" width="31.3" height="12.1"/>
		<path class="st16" d="M68,283.2c27.9,0,55.8,0,83.8,0v2.2H64.8C65.9,284.6,67,283.9,68,283.2z"/>
		<rect x="64.9" y="285.6" class="st26" width="86.9" height="11.1"/>
		<path class="st27" d="M151.8,296.7c1.2-0.2,2.4-0.4,3.5-0.6c0-3.6,0-7.3,0-10.9c-1.2,0.1-2.4,0.3-3.5,0.4V296.7z"/>
		<rect x="222.3" y="287.3" class="st28" width="29.3" height="12.2"/>
		<rect x="315.7" y="287.3" class="st28" width="17.3" height="12.5"/>
		<path class="st29" d="M333,287.3c12.1-0.9,24.2-1.8,36.3-2.7c0,2.9-0.1,5.8-0.1,8.8c-12.1,2.1-24.2,4.3-36.2,6.4
			C333,295.7,333,291.5,333,287.3z"/>
		<line class="st30" x1="39.2" y1="281" x2="36.3" y2="282.2"/>
		<line class="st31" x1="64.8" y1="285.3" x2="68" y2="283.2"/>
		<line class="st30" x1="68" y1="281" x2="39.2" y2="281"/>
		<line class="st30" x1="68" y1="283.2" x2="68" y2="281"/>
		<line class="st30" x1="151.8" y1="283.2" x2="68" y2="283.2"/>
		<line class="st30" x1="155.6" y1="283" x2="151.8" y2="283.2"/>
		<line class="st30" x1="151.8" y1="285.3" x2="151.8" y2="283.2"/>
		<line class="st30" x1="222.2" y1="285.3" x2="251.7" y2="285.3"/>
		<line class="st30" x1="315.7" y1="285.3" x2="332.4" y2="285.3"/>
		<line class="st30" x1="368.7" y1="283.2" x2="332.4" y2="285.3"/>
		<line class="st30" x1="222.2" y1="287.1" x2="222.2" y2="285.3"/>
		<line class="st30" x1="155.6" y1="285.1" x2="155.6" y2="283"/>
		<path class="st32" d="M222.3,299.5c-1.3,0.2-2.6,0.4-3.9,0.6c0-4.1,0-8.3,0-12.4c1.3-0.1,2.5-0.3,3.8-0.4
			C222.3,291.4,222.3,295.5,222.3,299.5z"/>
		<line class="st30" x1="218.2" y1="285.6" x2="222.2" y2="285.3"/>
		<line class="st30" x1="218.2" y1="287.4" x2="218.2" y2="285.6"/>
	</g>
	<rect x="151.8" y="295.1" class="st33" width="66.4" height="4.7"/>
	<g id="дверь">
		<g>
			<rect x="193.9" y="233.5" class="st20" width="26.6" height="49.3"/>
			<path class="st34" d="M219.7,234.3V282h-25v-47.7H219.7 M221.3,232.7h-28.2v50.9h28.2V232.7L221.3,232.7z"/>
		</g>
		<g>
			<rect x="197.5" y="238.1" class="st35" width="19" height="10"/>
			<path class="st36" d="M216.1,238.5v9.2h-18.2v-9.2H216.1 M216.9,237.7h-19.8v10.8h19.8V237.7L216.9,237.7z"/>
		</g>
		<g>
			<rect x="197.5" y="250.7" class="st35" width="19" height="10"/>
			<path class="st36" d="M216.1,251.1v9.2h-18.2v-9.2H216.1 M216.9,250.3h-19.8v10.8h19.8V250.3L216.9,250.3z"/>
		</g>
		<g>
			<rect x="197.6" y="263.9" class="st35" width="18.8" height="16.9"/>
			<path class="st36" d="M215.9,264.4v15.9h-17.7v-15.9H215.9 M216.9,263.4h-19.8v17.9h19.8V263.4L216.9,263.4z"/>
		</g>
	</g>
	<g>
		<rect x="209.3" y="225.5" class="st18" width="4.3" height="69.4"/>
		<rect x="208.8" y="225.7" class="st18" width="2.9" height="64.5"/>
		<path class="st16" d="M218.1,294.9c-1.5,0-3,0-4.5,0v-69.4h4.7C218.2,248.7,218.1,271.8,218.1,294.9z"/>
	</g>
	<g>
		<rect x="155.7" y="225.5" class="st18" width="4.7" height="68.6"/>
		<rect x="162.2" y="225.8" class="st16" width="2.9" height="64.2"/>
		<rect x="160.4" y="225.8" class="st16" width="2.8" height="68.3"/>
	</g>
	<rect x="250.9" y="242" class="st0" width="64.8" height="52.7"/>
	<g>
		<rect x="257.8" y="245.9" class="st37" width="57.9" height="48.7"/>
	</g>
	<g id="окно">
		<rect x="92.5" y="235.9" class="st35" width="33.7" height="34.4"/>
		<rect x="95" y="235.9" class="st38" width="28.5" height="33.5"/>
		<g>
			<rect x="95.9" y="236.7" class="st16" width="8.8" height="32"/>
			<path class="st39" d="M104.5,236.9v31.6h-8.4v-31.6H104.5 M105,236.5h-9.3V269h9.3V236.5L105,236.5z"/>
		</g>
		<g>
			<rect x="104.3" y="236.7" class="st16" width="8.8" height="32"/>
			<path class="st39" d="M112.9,236.9v31.6h-8.4v-31.6H112.9 M113.4,236.5h-9.3V269h9.3V236.5L113.4,236.5z"/>
		</g>
		<g>
			<rect x="113.6" y="236.7" class="st16" width="8.8" height="32"/>
			<path class="st39" d="M122.2,236.9v31.6h-8.4v-31.6H122.2 M122.6,236.5h-9.3V269h9.3V236.5L122.6,236.5z"/>
		</g>
		<rect x="91.7" y="230.9" class="st37" width="35.1" height="5.1"/>
		<rect x="91.7" y="270.3" class="st37" width="35.1" height="3.4"/>
		<g>
			<rect x="91.9" y="270.5" class="st0" width="34.6" height="1.3"/>
			<path class="st0" d="M126.4,270.7v0.9H92.1v-0.9H126.4 M126.8,270.3h-35v1.7h35V270.3L126.8,270.3z"/>
		</g>
	</g>
	<g id="окно_2_">
		<rect x="50.9" y="238.6" class="st35" width="16" height="28.6"/>
		<rect x="52.9" y="238.6" class="st38" width="13.9" height="27.9"/>
		<g>
			<rect x="53.7" y="239.3" class="st16" width="7.4" height="26.7"/>
			<path class="st39" d="M60.9,239.5v26.4h-7v-26.4H60.9 M61.3,239.1h-7.7v27.1h7.7V239.1L61.3,239.1z"/>
		</g>
		<g>
			<rect x="60.7" y="239.3" class="st16" width="5.9" height="26.7"/>
			<path class="st39" d="M66.5,239.4v26.4h-5.6v-26.4H66.5 M66.8,239.1h-6.3v27.1h6.3V239.1L66.8,239.1z"/>
		</g>
		<g>
			<rect x="61.3" y="239.5" class="st16" width="5.6" height="26.3"/>
		</g>
		<rect x="50.3" y="234.4" class="st37" width="16.6" height="4.2"/>
		<rect x="50.3" y="267.3" class="st37" width="16.6" height="2.9"/>
		<g>
			<rect x="50.4" y="267.4" class="st0" width="16.3" height="1.1"/>
			<path class="st0" d="M66.6,267.5v0.9H50.5v-0.9H66.6 M66.8,267.3H50.3v1.4h16.6V267.3L66.8,267.3z"/>
		</g>
	</g>
	<g id="окно_1_">
		<rect x="92.5" y="155.4" class="st35" width="33.7" height="34.4"/>
		<rect x="95" y="155.4" class="st38" width="28.5" height="33.5"/>
		<g>
			<rect x="95.9" y="156.2" class="st16" width="8.8" height="32"/>
			<path class="st39" d="M104.5,156.4V188h-8.4v-31.6H104.5 M105,155.9h-9.3v32.5h9.3V155.9L105,155.9z"/>
		</g>
		<g>
			<rect x="104.3" y="156.2" class="st16" width="8.8" height="32"/>
			<path class="st39" d="M112.9,156.4V188h-8.4v-31.6H112.9 M113.4,155.9h-9.3v32.5h9.3V155.9L113.4,155.9z"/>
		</g>
		<g>
			<rect x="113.6" y="156.2" class="st16" width="8.8" height="32"/>
			<path class="st39" d="M122.2,156.4V188h-8.4v-31.6H122.2 M122.6,155.9h-9.3v32.5h9.3V155.9L122.6,155.9z"/>
		</g>
		<path class="st37" d="M126.9,153.6c-2.6-1.6-9-5-17.8-4.9c-8.5,0.1-14.7,3.3-17.3,4.9c0,0.6,0,1.2,0,1.8h35.1V153.6z"/>
		<rect x="91.7" y="189.7" class="st37" width="35.1" height="3.4"/>
		<g>
			<rect x="91.9" y="189.9" class="st0" width="34.6" height="1.3"/>
			<path class="st0" d="M126.4,190.1v0.9H92.1v-0.9H126.4 M126.8,189.7h-35v1.7h35V189.7L126.8,189.7z"/>
		</g>
	</g>
	<g id="окно2_1_">
		<path class="st40" d="M298.9,188.8c-3.7-1.4-7.4-2.8-11.1-4.2c0-7,0-14,0-21c3.6,1.5,7.3,3,10.9,4.5
			C298.8,174.9,298.9,181.9,298.9,188.8z"/>
		<path class="st41" d="M297.9,187.4c-3.1-1.2-6.1-2.4-9.2-3.6c0-6.3,0-12.5,0-18.8c3.1,1.2,6.1,2.4,9.2,3.7
			C297.9,174.9,297.9,181.2,297.9,187.4z"/>
		<g>
			<path class="st42" d="M293.3,185.1c-1.4-0.5-2.7-1.1-4.1-1.6c0-5.9,0-11.9,0-17.8c1.4,0.6,2.8,1.1,4.2,1.6
				C293.3,173.3,293.3,179.2,293.3,185.1z"/>
			<path class="st42" d="M297.5,186.8c-1.4-0.6-2.8-1.1-4.2-1.7c0-5.9,0-11.8,0-17.7c1.4,0.6,2.8,1.2,4.2,1.8
				C297.5,175,297.5,180.9,297.5,186.8z"/>
		</g>
	</g>
	<g id="окно2">
		<path class="st43" d="M279.5,182.3c-4-1.5-7.9-3-11.9-4.5c0-7.5,0-15,0-22.4c3.9,1.6,7.8,3.2,11.7,4.8
			C279.4,167.6,279.5,175,279.5,182.3z"/>
		<path class="st44" d="M278.4,180.9c-3.3-1.3-6.5-2.6-9.8-3.8c0-6.7,0-13.4,0-20.1c3.3,1.3,6.5,2.6,9.8,3.9
			C278.4,167.6,278.4,174.2,278.4,180.9z"/>
		<g>
			<path class="st45" d="M273.6,178.4c-1.5-0.6-2.9-1.1-4.4-1.7c0-6.3,0-12.7,0-19c1.5,0.6,3,1.2,4.4,1.8
				C273.6,165.8,273.6,172.1,273.6,178.4z"/>
			<path class="st45" d="M278,180.2c-1.5-0.6-3-1.2-4.5-1.8c0-6.3,0-12.6,0-18.9c1.5,0.6,3,1.3,4.4,1.9
				C278,167.6,278,173.9,278,180.2z"/>
		</g>
	</g>
	<path class="st46" d="M350,239.4c-3.7-0.6-7.4-1.1-11.1-1.7c0.1-1.8,0.1-3.6,0.2-5.3c3.7,0.8,7.3,1.6,11,2.4
		C350,236.3,350,237.9,350,239.4z"/>
	<path class="st47" d="M349.6,239.1c-3.5-0.5-6.9-1-10.4-1.5c0.1-1.6,0.1-3.2,0.2-4.8c3.4,0.7,6.8,1.4,10.2,2.1
		C349.6,236.3,349.6,237.7,349.6,239.1z"/>
	<path class="st48" d="M362.1,241.4c-3.4-0.5-6.8-1-10.2-1.6c0.1-1.6,0.1-3.3,0.2-4.9c3.3,0.7,6.7,1.4,10,2.2
		C362.1,238.5,362.1,239.9,362.1,241.4z"/>
	<path class="st49" d="M361.8,241.1c-3.2-0.5-6.3-0.9-9.5-1.4c0.1-1.5,0.1-2.9,0.2-4.4c3.1,0.6,6.2,1.3,9.3,1.9
		C361.8,238.5,361.8,239.8,361.8,241.1z"/>
	<line class="st50" x1="258.3" y1="251" x2="315" y2="251"/>
	<line class="st50" x1="258.3" y1="257.2" x2="315" y2="257.2"/>
	<line class="st50" x1="258.3" y1="263.4" x2="315" y2="263.4"/>
	<line class="st50" x1="258.3" y1="269.1" x2="315" y2="269.1"/>
	<line class="st50" x1="258.6" y1="275" x2="315" y2="275"/>
	<line class="st50" x1="258.3" y1="280.4" x2="315" y2="280.4"/>
	<line class="st50" x1="258.3" y1="285.7" x2="315" y2="285.7"/>
	<line class="st50" x1="258.3" y1="290.9" x2="315" y2="290.9"/>
	<g>
		<path class="st35" d="M314,247.5V293h-54.7v-45.5H314 M315.6,245.9h-57.9v48.7h57.9V245.9L315.6,245.9z"/>
	</g>
	<ellipse class="st51" cx="283.1" cy="124.8" rx="5.3" ry="8.1"/>
	<line class="st52" x1="283.4" y1="117.3" x2="283.1" y2="132.6"/>
	<line class="st52" x1="278" y1="123.2" x2="288.3" y2="125.9"/>
	<ellipse class="st53" cx="283.1" cy="124.8" rx="5.3" ry="8.1"/>
</g>
</svg>
