<?xml version="1.0" encoding="utf-8"?>
<!-- Generator: Adobe Illustrator 24.2.1, SVG Export Plug-In . SVG Version: 6.00 Build 0)  -->
<svg version="1.1" id="Слой_1" xmlns="http://www.w3.org/2000/svg" xmlns:xlink="http://www.w3.org/1999/xlink" x="0px" y="0px"
	 viewBox="0 0 400 400" style="enable-background:new 0 0 400 400;" xml:space="preserve">
<style type="text/css">
	.st0{fill:#D7D7D7;}
	.st1{fill:#D7D7D7;stroke:#8E8E8E;stroke-width:1.1055;stroke-miterlimit:10;}
	.st2{clip-path:url(#SVGID_3_);}
	.st3{fill:#F1B965;stroke:#1D1D1B;stroke-width:0.5561;stroke-miterlimit:10;}
	.st4{opacity:0.4;fill:#DB9B46;stroke:#1D1D1B;stroke-width:0.6252;stroke-miterlimit:10;enable-background:new    ;}
	.st5{fill:#A55839;}
	.st6{fill:#BC6446;}
	.st7{fill:none;stroke:#1D1D1B;stroke-width:0.5561;stroke-miterlimit:10;}
	.st8{fill:#AD5A23;stroke:#87683E;stroke-width:0.7042;stroke-miterlimit:10;}
	.st9{fill:#D36D25;stroke:#87683E;stroke-width:1.0686;stroke-miterlimit:10;}
	.st10{fill:#AD5A23;stroke:#87683E;stroke-width:0.549;stroke-miterlimit:10;}
	.st11{fill:#D36D25;stroke:#87683E;stroke-width:0.6863;stroke-miterlimit:10;}
	.st12{fill:#D36D25;stroke:#87683E;stroke-width:0.6756;stroke-miterlimit:10;}
	.st13{fill:#A8A8A8;stroke:#87683E;stroke-width:0.5527;stroke-miterlimit:10;}
	.st14{fill:#C6C6C6;stroke:#87683E;stroke-width:0.2764;stroke-miterlimit:10;}
	.st15{fill:#D9D9D9;stroke:#87683E;stroke-width:1.1055;stroke-miterlimit:10;}
	.st16{fill:none;stroke:#87683E;stroke-width:0.2857;stroke-miterlimit:10;}
	.st17{fill:#D36D25;stroke:#87683E;stroke-width:0.6275;stroke-miterlimit:10;}
	.st18{fill:#AF571C;stroke:#87683E;stroke-width:0.6403;stroke-miterlimit:10;}
	.st19{fill:#D36D25;stroke:#87683E;stroke-width:0.9715;stroke-miterlimit:10;}
	.st20{fill:#D36D25;stroke:#87683E;stroke-width:0.4991;stroke-miterlimit:10;}
	.st21{fill:#D36D25;stroke:#87683E;stroke-width:0.6239;stroke-miterlimit:10;}
	.st22{fill:#D36D25;stroke:#87683E;stroke-width:0.6142;stroke-miterlimit:10;}
	.st23{fill:#B2B2B2;stroke:#87683E;stroke-width:0.2764;stroke-miterlimit:10;}
	.st24{fill:#C6C6C6;stroke:#87683E;stroke-width:0.2867;stroke-miterlimit:10;}
	.st25{fill:none;stroke:#87683E;stroke-width:0.2764;stroke-miterlimit:10;}
	.st26{fill:#C46526;stroke:#87683E;stroke-width:0.5704;stroke-miterlimit:10;}
	.st27{fill:#D36D25;stroke:#87683E;stroke-width:1.1055;stroke-miterlimit:10;}
	.st28{fill:#1D1D1B;}
	.st29{fill:#6D6D6A;}
	.st30{fill:none;stroke:#777777;stroke-width:0.5561;stroke-miterlimit:10;}
	.st31{opacity:0.4;fill:none;stroke:#000000;stroke-width:0.5169;stroke-miterlimit:10;enable-background:new    ;}
	.st32{fill:none;stroke:#000000;stroke-width:1.1055;stroke-miterlimit:10;}
</style>
<g>
	<g>
		<g>
			<rect x="32.5" y="373.3" class="st0" width="334.2" height="10.2"/>
			<path class="st1" d="M365.8,374.2v8.4H33.4v-8.4H365.8 M367.6,372.4h-336v11.9h336V372.4L367.6,372.4z"/>
		</g>
	</g>
	<g>
		<g>
			<g>
				<g>
					<g>
						<g>
							<defs>
								<path id="SVGID_1_" d="M22.9,185.8c24.2-21.8,42.9-40.5,55.3-53.1c29.6-30.3,65.3-54.7,92.3-87.4
									c4.6-5.6,15.3-18.9,28.7-18.2c10.8,0.6,18.5,9.7,21.2,13c23.5,28.1,54.7,48.6,80.9,74.3c34.9,34.2,80.3,70.1,78.6,72.2
									c-0.2,0.3-1.4-0.1-7.7,0c-0.2,0-0.7,0-1.1,0c0,62,0,123.9,0,185.9c-114.3-0.1-228.6-0.3-342.9-0.4
									c-0.6-112.2-0.8-182.8-0.4-184.6c0-0.1,0.1-0.6-0.1-1C26.9,185.4,24.7,185.5,22.9,185.8z"/>
							</defs>
							<clipPath id="SVGID_3_">
								<use xlink:href="#SVGID_1_"  style="overflow:visible;"/>
							</clipPath>
							<g transform="matrix(1 0 0 1 0 5.960464e-08)" class="st2">
							</g>
						</g>
					</g>
				</g>
			</g>
		</g>
	</g>
	<g id="стена1_2_">
		<path id="SVGID_2_" class="st3" d="M22.9,185.8c24.2-21.8,42.9-40.5,55.3-53.1c29.6-30.3,65.3-54.7,92.3-87.4
			c4.6-5.6,15.3-18.9,28.7-18.2c10.8,0.6,18.5,9.7,21.2,13c23.5,28.1,54.7,48.6,80.9,74.3c34.9,34.2,80.3,70.1,78.6,72.2
			c-0.2,0.3-1.4-0.1-7.7,0c-0.2,0-0.7,0-1.1,0c0,62,0,123.9,0,185.9c-114.3-0.1-228.6-0.3-342.9-0.4c-0.6-112.2-0.8-182.8-0.4-184.6
			c0-0.1,0.1-0.6-0.1-1C26.9,185.4,24.7,185.5,22.9,185.8z"/>
	</g>
	<rect x="365" y="186.5" class="st4" width="6.1" height="185.9"/>
	<rect x="27.4" y="186.5" class="st4" width="6.1" height="185.9"/>
	<g>
		
			<rect x="-27.2" y="97.1" transform="matrix(0.7636 -0.6457 0.6457 0.7636 -41.4769 90.6042)" class="st5" width="260.3" height="9.6"/>
		
			<rect x="-22.2" y="103.5" transform="matrix(0.7636 -0.6457 0.6457 0.7636 -44.119 95.2184)" class="st6" width="260.3" height="8.6"/>
		<g>
			<g>
				<line class="st7" x1="22.9" y1="185.8" x2="199.2" y2="36.3"/>
			</g>
		</g>
	</g>
	<g>
		<path class="st5" d="M392.5,189.4C328.1,134.7,263.9,80,199.6,25.3c0-3.6,0-7.3-0.1-10.8l199.2,167.7L392.5,189.4z"/>
		<path class="st6" d="M387.7,195C324.9,142.1,262.1,89.2,199.2,36.3c0.1-3.6,0.2-7.3,0.3-11.1c64.6,54.4,129.1,108.8,193.7,163.2
			L387.7,195z"/>
		<g>
			<g>
				<line class="st7" x1="377.6" y1="186.5" x2="199.2" y2="36.3"/>
			</g>
		</g>
	</g>
	<g id="окно1_3_">
		<rect x="134.2" y="173" class="st8" width="64" height="2.3"/>
		<rect x="135" y="175.4" class="st9" width="62.5" height="5.6"/>
		<rect x="135" y="99.2" class="st10" width="62.5" height="1.4"/>
		<rect x="143.1" y="105.2" class="st11" width="46.4" height="67.9"/>
		<rect x="136.9" y="100.8" class="st11" width="6.2" height="73.4"/>
		<rect x="189.5" y="100.8" class="st11" width="6.2" height="73.4"/>
		<rect x="143.1" y="100.8" class="st12" width="46.4" height="4.4"/>
		<rect x="144.6" y="107.9" class="st13" width="43.2" height="62.6"/>
		<rect x="145.7" y="108.5" class="st14" width="41.1" height="60.7"/>
		<rect x="145.7" y="137.5" class="st15" width="41.1" height="2.2"/>
		<rect x="165.4" y="108.5" class="st15" width="1.9" height="60.7"/>
		<rect x="145.7" y="108.5" class="st16" width="41.1" height="60.7"/>
		<rect x="133.7" y="96.8" class="st17" width="65.2" height="1.9"/>
	</g>
	<g id="окно1_2_">
		<rect x="200.6" y="173" class="st8" width="64" height="2.3"/>
		<rect x="201.2" y="175.4" class="st9" width="62.5" height="5.6"/>
		<rect x="201.2" y="99.2" class="st10" width="62.5" height="1.4"/>
		<rect x="209.4" y="105.2" class="st11" width="46.4" height="67.9"/>
		<rect x="203.1" y="100.8" class="st11" width="6.2" height="73.4"/>
		<rect x="255.8" y="100.8" class="st11" width="6.2" height="73.4"/>
		<rect x="209.4" y="100.8" class="st12" width="46.4" height="4.4"/>
		<rect x="210.8" y="107.9" class="st13" width="43.2" height="62.6"/>
		<rect x="212" y="108.5" class="st14" width="41.1" height="60.7"/>
		<rect x="212" y="137.5" class="st15" width="41.1" height="2.2"/>
		<rect x="231.6" y="108.5" class="st15" width="1.9" height="60.7"/>
		<rect x="212" y="108.5" class="st16" width="41.1" height="60.7"/>
		<rect x="200" y="96.8" class="st17" width="65.2" height="1.9"/>
	</g>
	<g id="окно1_1_">
		<rect x="249" y="319.2" class="st18" width="53" height="2.3"/>
		<rect x="249.6" y="321.6" class="st19" width="51.6" height="5.6"/>
		<rect x="249.6" y="245.2" class="st20" width="51.6" height="1.4"/>
		<rect x="256.3" y="251.4" class="st21" width="38.4" height="67.9"/>
		<rect x="251.2" y="246.9" class="st21" width="5.1" height="73.4"/>
		<rect x="294.6" y="246.9" class="st21" width="5.1" height="73.4"/>
		<rect x="256.3" y="246.9" class="st22" width="38.4" height="4.4"/>
		<rect x="257.6" y="254" class="st23" width="35.7" height="62.6"/>
		<rect x="258.4" y="254.6" class="st24" width="34.2" height="60.9"/>
		<rect x="274.3" y="256" class="st15" width="2.5" height="58.4"/>
		<rect x="259" y="255.4" class="st25" width="32.9" height="58.7"/>
		<rect x="248.5" y="243" class="st26" width="53.9" height="1.9"/>
	</g>
	<g>
		<g>
			<rect x="77.4" y="226.6" class="st27" width="58.5" height="142.9"/>
			<path class="st27" d="M135,227.4v141.3H78.2V227.4H135 M136.7,225.7H135H78.2h-1.7v1.7v141.3v1.7h1.7H135h1.7v-1.7V227.4V225.7
				L136.7,225.7z"/>
		</g>
	</g>
	<rect x="76.4" y="369.6" class="st28" width="60.5" height="1.5"/>
	<g>
		<g>
			<path class="st28" d="M82.4,301.2c1.8,0,1.8-2.8,0-2.8C80.6,298.3,80.5,301.2,82.4,301.2L82.4,301.2z"/>
		</g>
	</g>
	<g>
		<g>
			<path class="st29" d="M83.5,299.2c-0.1-0.1-0.1-0.3-0.1-0.4C83.4,298.9,83.4,299,83.5,299.2c-0.1-0.2-0.1-0.4-0.1-0.6
				c0,0.1,0,0.2,0,0.3c0-0.2,0.1-0.3,0.1-0.6c0,0.1-0.1,0.2-0.1,0.3c0.1-0.1,0.1-0.3,0.2-0.4c-0.1,0.1-0.1,0.2-0.2,0.3
				c0.1-0.1,0.2-0.2,0.3-0.3c-0.1,0.1-0.2,0.1-0.3,0.2c0.1-0.1,0.2-0.1,0.3-0.2c-0.1,0-0.2,0.1-0.3,0.1c0.2-0.1,0.3-0.1,0.6-0.1
				c-0.1,0-0.2,0-0.3,0c0.2,0,0.3,0,0.6,0c-0.1,0-0.2,0-0.3,0c0.2,0,0.3,0.1,0.6,0.1c-0.1,0-0.2-0.1-0.3-0.1
				c0.1,0.1,0.3,0.1,0.4,0.2c-0.1-0.1-0.2-0.1-0.3-0.2l0.1,0.1c0.2,0.2,0.7,0.4,1,0.4s0.8-0.1,1-0.4c0.2-0.2,0.4-0.6,0.4-1
				c0-0.3-0.1-0.8-0.4-1c-0.9-0.8-2.1-1.1-3.3-0.8c-1.1,0.3-2,1.2-2.3,2.4c-0.1,0.6-0.1,1.3,0.1,1.9c0.1,0.3,0.3,0.7,0.7,0.9
				c0.3,0.2,0.8,0.2,1.1,0.1c0.3-0.1,0.7-0.3,0.9-0.7C83.5,300,83.6,299.6,83.5,299.2L83.5,299.2z"/>
		</g>
	</g>
	<circle class="st30" cx="82.4" cy="304.1" r="1.2"/>
	<line class="st31" x1="35" y1="196.9" x2="365" y2="196.9"/>
	<g>
		<g>
			<line class="st32" x1="40.2" y1="202.3" x2="182.2" y2="202.3"/>
			<g>
				<path d="M33.5,202.3c3.1,1.2,7.1,3.2,9.4,5.3l-1.9-5.3l1.9-5.3C40.6,199.2,36.6,201.2,33.5,202.3z"/>
			</g>
		</g>
	</g>
	<g>
		<g>
			<line class="st32" x1="216.3" y1="202.3" x2="358.3" y2="202.3"/>
			<g>
				<path d="M365,202.3c-3.1,1.2-7.1,3.2-9.4,5.3l1.9-5.3l-1.9-5.3C357.9,199.2,361.9,201.2,365,202.3z"/>
			</g>
		</g>
	</g>
	<g>
		<g>
			<line class="st32" x1="22.9" y1="179.2" x2="22.9" y2="118.5"/>
			<g>
				<path d="M22.9,185.8c1.2-3.1,3.2-7.1,5.3-9.4l-5.3,1.9l-5.3-1.9C19.7,178.7,21.7,182.7,22.9,185.8z"/>
			</g>
		</g>
	</g>
	<line class="st32" x1="199.2" y1="36.3" x2="22.9" y2="36.3"/>
	<g>
		<g>
			<line class="st32" x1="22.9" y1="75.7" x2="22.9" y2="43"/>
			<g>
				<path d="M22.9,36.3c1.2,3.1,3.2,7.1,5.3,9.4l-5.3-1.9l-5.3,1.9C19.7,43.4,21.7,39.4,22.9,36.3z"/>
			</g>
		</g>
	</g>
	<g>
		<path d="M194.9,198.7c1.2-0.2,3-0.4,5-0.4c2.7,0,4.4,0.4,5.7,1.5c1.1,0.8,1.8,2,1.8,3.6c0,2-1.3,3.8-3.5,4.5v0.1
			c2,0.4,4.3,2.1,4.3,5.2c0,1.8-0.7,3.2-1.8,4.2c-1.4,1.3-3.8,2-7.2,2c-1.9,0-3.3-0.1-4.2-0.2v-20.6H194.9z M197.7,207.2h2.4
			c2.9,0,4.5-1.4,4.5-3.5c0-2.4-1.9-3.4-4.5-3.4c-1.2,0-2,0.1-2.4,0.2V207.2z M197.7,217.3c0.6,0.1,1.3,0.1,2.2,0.1
			c2.8,0,5.3-1,5.3-4.1c0-2.9-2.4-4-5.4-4h-2.2v8H197.7z"/>
	</g>
	<g>
		<path d="M18,87v8.7h10.1V87h2.8v20.9h-2.8v-9.7H18v9.7h-2.7V87H18z"/>
	</g>
</g>
</svg>
