<?xml version="1.0" encoding="utf-8"?>
<!-- Generator: Adobe Illustrator 24.2.1, SVG Export Plug-In . SVG Version: 6.00 Build 0)  -->
<svg version="1.1" id="Слой_1" xmlns="http://www.w3.org/2000/svg" xmlns:xlink="http://www.w3.org/1999/xlink" x="0px" y="0px"
	 viewBox="0 0 400 400" style="enable-background:new 0 0 400 400;" xml:space="preserve">
<style type="text/css">
	.st0{fill:#D7D7D7;}
	.st1{fill:#D7D7D7;stroke:#8E8E8E;stroke-miterlimit:10;}
	.st2{clip-path:url(#SVGID_3_);}
	.st3{fill:#F1B965;stroke:#1D1D1B;stroke-width:0.503;stroke-miterlimit:10;}
	.st4{opacity:0.4;fill:#DB9B46;stroke:#1D1D1B;stroke-width:0.5655;stroke-miterlimit:10;enable-background:new    ;}
	.st5{fill:#A55839;}
	.st6{fill:#BC6446;}
	.st7{fill:#A55839;stroke:#1D1D1B;stroke-width:0.503;stroke-miterlimit:10;}
	.st8{fill:#AD5A23;stroke:#87683E;stroke-width:0.637;stroke-miterlimit:10;}
	.st9{fill:#D36D25;stroke:#87683E;stroke-width:0.9666;stroke-miterlimit:10;}
	.st10{fill:#AD5A23;stroke:#87683E;stroke-width:0.4966;stroke-miterlimit:10;}
	.st11{fill:#D36D25;stroke:#87683E;stroke-width:0.6208;stroke-miterlimit:10;}
	.st12{fill:#D36D25;stroke:#87683E;stroke-width:0.6111;stroke-miterlimit:10;}
	.st13{fill:#A8A8A8;stroke:#87683E;stroke-width:0.5;stroke-miterlimit:10;}
	.st14{fill:#C6C6C6;stroke:#87683E;stroke-width:0.25;stroke-miterlimit:10;}
	.st15{fill:#D9D9D9;stroke:#87683E;stroke-miterlimit:10;}
	.st16{fill:none;stroke:#87683E;stroke-width:0.2584;stroke-miterlimit:10;}
	.st17{fill:#D36D25;stroke:#87683E;stroke-width:0.5676;stroke-miterlimit:10;}
	.st18{fill:#AF571C;stroke:#87683E;stroke-width:0.5792;stroke-miterlimit:10;}
	.st19{fill:#D36D25;stroke:#87683E;stroke-width:0.8788;stroke-miterlimit:10;}
	.st20{fill:#D36D25;stroke:#87683E;stroke-width:0.4515;stroke-miterlimit:10;}
	.st21{fill:#D36D25;stroke:#87683E;stroke-width:0.5644;stroke-miterlimit:10;}
	.st22{fill:#D36D25;stroke:#87683E;stroke-width:0.5556;stroke-miterlimit:10;}
	.st23{fill:#B2B2B2;stroke:#87683E;stroke-width:0.25;stroke-miterlimit:10;}
	.st24{fill:#C6C6C6;stroke:#87683E;stroke-width:0.2593;stroke-miterlimit:10;}
	.st25{fill:none;stroke:#87683E;stroke-width:0.25;stroke-miterlimit:10;}
	.st26{fill:#C46526;stroke:#87683E;stroke-width:0.516;stroke-miterlimit:10;}
	.st27{fill:#D36D25;stroke:#87683E;stroke-miterlimit:10;}
	.st28{fill:#1D1D1B;}
	.st29{fill:#6D6D6A;}
	.st30{fill:none;stroke:#777777;stroke-width:0.503;stroke-miterlimit:10;}
	.st31{opacity:0.4;fill:none;stroke:#000000;stroke-width:0.4676;stroke-miterlimit:10;enable-background:new    ;}
</style>
<g>
	<g>
		<rect x="50.8" y="349.8" class="st0" width="302.3" height="9.2"/>
		<path class="st1" d="M352.3,350.6v7.6H51.6v-7.6H352.3 M353.9,349H50v10.8h303.9V349L353.9,349z"/>
	</g>
</g>
<g>
	<g>
		<g>
			<g>
				<defs>
					<path id="SVGID_2_" d="M42.1,180.2c21.9-19.7,38.8-36.6,50-48c26.8-27.4,59.1-49.5,83.5-79.1c4.2-5.1,13.8-17.1,26-16.5
						c9.8,0.5,16.7,8.8,19.2,11.8c21.3,25.4,49.5,44,73.2,67.2c31.6,30.9,72.6,63.4,71.1,65.3c-0.2,0.3-1.3-0.1-7,0
						c-0.2,0-0.6,0-1,0c0,56.1,0,112.1,0,168.2c-103.4-0.1-206.8-0.3-310.2-0.4c-0.5-101.5-0.7-165.4-0.4-167c0-0.1,0.1-0.5-0.1-0.9
						C45.7,179.8,43.7,179.9,42.1,180.2z"/>
				</defs>
				<clipPath id="SVGID_3_">
					<use xlink:href="#SVGID_2_"  style="overflow:visible;"/>
				</clipPath>
				<g transform="matrix(1 0 0 1 0 5.960464e-08)" class="st2">
				</g>
			</g>
		</g>
	</g>
</g>
<g id="стена1_1_">
	<path id="SVGID_1_" class="st3" d="M42.1,180.2c21.9-19.7,38.8-36.6,50-48c26.8-27.4,59.1-49.5,83.5-79.1
		c4.2-5.1,13.8-17.1,26-16.5c9.8,0.5,16.7,8.8,19.2,11.8c21.3,25.4,49.5,44,73.2,67.2c31.6,30.9,72.6,63.4,71.1,65.3
		c-0.2,0.3-1.3-0.1-7,0c-0.2,0-0.6,0-1,0c0,56.1,0,112.1,0,168.2c-103.4-0.1-206.8-0.3-310.2-0.4c-0.5-101.5-0.7-165.4-0.4-167
		c0-0.1,0.1-0.5-0.1-0.9C45.7,179.8,43.7,179.9,42.1,180.2z"/>
</g>
<rect x="351.5" y="180.8" class="st4" width="5.5" height="168.2"/>
<rect x="46.2" y="180.8" class="st4" width="5.5" height="168.2"/>
<g>
	
		<rect x="-3.2" y="100" transform="matrix(0.7636 -0.6457 0.6457 0.7636 -40.3021 98.6451)" class="st5" width="235.5" height="8.7"/>
	
		<rect x="1.3" y="105.8" transform="matrix(0.7636 -0.6457 0.6457 0.7636 -42.6892 102.8091)" class="st6" width="235.5" height="7.8"/>
	<g>
		<g>
			<line class="st7" x1="42.1" y1="180.2" x2="201.6" y2="45"/>
		</g>
	</g>
</g>
<g>
	<path class="st5" d="M376.4,183.5C318.2,134,260.1,84.5,201.9,35c0-3.3,0-6.6-0.1-9.8L382,176.9L376.4,183.5z"/>
	<path class="st6" d="M372.1,188.5C315.3,140.7,258.5,92.8,201.6,45c0.1-3.3,0.2-6.6,0.3-10c58.4,49.2,116.8,98.4,175.2,147.6
		L372.1,188.5z"/>
	<g>
		<g>
			<line class="st7" x1="362.9" y1="180.8" x2="201.6" y2="45"/>
		</g>
	</g>
</g>
<g id="окно1_4_">
	<rect x="142.8" y="168.6" class="st8" width="57.9" height="2.1"/>
	<rect x="143.5" y="170.8" class="st9" width="56.5" height="5.1"/>
	<rect x="143.5" y="101.9" class="st10" width="56.5" height="1.3"/>
	<rect x="150.8" y="107.3" class="st11" width="42" height="61.4"/>
	<rect x="145.2" y="103.3" class="st11" width="5.6" height="66.4"/>
	<rect x="192.8" y="103.3" class="st11" width="5.6" height="66.4"/>
	<rect x="150.8" y="103.3" class="st12" width="42" height="4"/>
	<rect x="152.2" y="109.7" class="st13" width="39.1" height="56.6"/>
	<rect x="153.2" y="110.3" class="st14" width="37.2" height="54.9"/>
	<rect x="153.2" y="136.5" class="st15" width="37.2" height="2"/>
	<rect x="171" y="110.3" class="st15" width="1.7" height="54.9"/>
	<rect x="153.2" y="110.3" class="st16" width="37.2" height="54.9"/>
	<rect x="142.3" y="99.7" class="st17" width="59" height="1.7"/>
</g>
<g id="окно1_1_">
	<rect x="202.8" y="168.6" class="st8" width="57.9" height="2.1"/>
	<rect x="203.4" y="170.8" class="st9" width="56.5" height="5.1"/>
	<rect x="203.4" y="101.9" class="st10" width="56.5" height="1.3"/>
	<rect x="210.8" y="107.3" class="st11" width="42" height="61.4"/>
	<rect x="205.1" y="103.3" class="st11" width="5.6" height="66.4"/>
	<rect x="252.8" y="103.3" class="st11" width="5.6" height="66.4"/>
	<rect x="210.8" y="103.3" class="st12" width="42" height="4"/>
	<rect x="212.1" y="109.7" class="st13" width="39.1" height="56.6"/>
	<rect x="213.1" y="110.3" class="st14" width="37.2" height="54.9"/>
	<rect x="213.1" y="136.5" class="st15" width="37.2" height="2"/>
	<rect x="230.9" y="110.3" class="st15" width="1.7" height="54.9"/>
	<rect x="213.1" y="110.3" class="st16" width="37.2" height="54.9"/>
	<rect x="202.3" y="99.7" class="st17" width="59" height="1.7"/>
</g>
<g id="окно1_6_">
	<rect x="246.6" y="300.9" class="st18" width="47.9" height="2.1"/>
	<rect x="247.2" y="303" class="st19" width="46.7" height="5.1"/>
	<rect x="247.2" y="233.9" class="st20" width="46.7" height="1.3"/>
	<rect x="253.2" y="239.5" class="st21" width="34.7" height="61.4"/>
	<rect x="248.6" y="235.5" class="st21" width="4.6" height="66.4"/>
	<rect x="287.9" y="235.5" class="st21" width="4.6" height="66.4"/>
	<rect x="253.2" y="235.5" class="st22" width="34.7" height="4"/>
	<rect x="254.4" y="241.9" class="st23" width="32.3" height="56.6"/>
	<rect x="255.1" y="242.4" class="st24" width="30.9" height="55.1"/>
	<rect x="269.5" y="243.7" class="st15" width="2.3" height="52.8"/>
	<rect x="255.7" y="243.2" class="st25" width="29.8" height="53.1"/>
	<rect x="246.2" y="231.9" class="st26" width="48.8" height="1.7"/>
</g>
<g>
	<g>
		<rect x="91.4" y="217.1" class="st27" width="52.9" height="129.3"/>
		<path class="st27" d="M143.5,217.8v127.8H92.1V217.8H143.5 M145,216.3h-1.5H92.1h-1.5v1.5v127.8v1.5h1.5h51.4h1.5v-1.5V217.8
			V216.3L145,216.3z"/>
	</g>
</g>
<rect x="90.5" y="346.5" class="st28" width="54.7" height="1.4"/>
<g>
	<g>
		<path class="st28" d="M95.9,284.6c1.6,0,1.6-2.5,0-2.5C94.3,282,94.2,284.6,95.9,284.6L95.9,284.6z"/>
	</g>
</g>
<g>
	<g>
		<path class="st29" d="M96.9,282.8c-0.1-0.1-0.1-0.3-0.1-0.4C96.8,282.5,96.8,282.6,96.9,282.8c-0.1-0.2-0.1-0.4-0.1-0.5
			c0,0.1,0,0.2,0,0.3c0-0.2,0.1-0.3,0.1-0.5c0,0.1-0.1,0.2-0.1,0.3c0.1-0.1,0.1-0.3,0.2-0.4c-0.1,0.1-0.1,0.2-0.2,0.3
			c0.1-0.1,0.2-0.2,0.3-0.3c-0.1,0.1-0.2,0.1-0.3,0.2c0.1-0.1,0.2-0.1,0.3-0.2c-0.1,0-0.2,0.1-0.3,0.1c0.2-0.1,0.3-0.1,0.5-0.1
			c-0.1,0-0.2,0-0.3,0c0.2,0,0.3,0,0.5,0c-0.1,0-0.2,0-0.3,0c0.2,0,0.3,0.1,0.5,0.1c-0.1,0-0.2-0.1-0.3-0.1c0.1,0.1,0.3,0.1,0.4,0.2
			c-0.1-0.1-0.2-0.1-0.3-0.2l0.1,0.1c0.2,0.2,0.6,0.4,0.9,0.4s0.7-0.1,0.9-0.4c0.2-0.2,0.4-0.5,0.4-0.9c0-0.3-0.1-0.7-0.4-0.9
			c-0.8-0.7-1.9-1-3-0.7c-1,0.3-1.8,1.1-2.1,2.2c-0.1,0.5-0.1,1.2,0.1,1.7c0.1,0.3,0.3,0.6,0.6,0.8c0.3,0.2,0.7,0.2,1,0.1
			s0.6-0.3,0.8-0.6C96.9,283.5,97,283.1,96.9,282.8L96.9,282.8z"/>
	</g>
</g>
<circle class="st30" cx="95.9" cy="287.2" r="1.1"/>
<line class="st31" x1="53" y1="190.2" x2="351.5" y2="190.2"/>
</svg>
